<?xml version="1.0" encoding="utf-8"?>
<!-- Generator: Adobe Illustrator 13.0.0, SVG Export Plug-In . SVG Version: 6.00 Build 14948)  -->
<!DOCTYPE svg PUBLIC "-//W3C//DTD SVG 1.1//EN" "http://www.w3.org/Graphics/SVG/1.1/DTD/svg11.dtd">
<svg version="1.1" id="Calque_1" xmlns="http://www.w3.org/2000/svg" xmlns:xlink="http://www.w3.org/1999/xlink" x="0px" y="0px"
	 width="200px" height="200px" viewBox="0 0 200 200" enable-background="new 0 0 200 200" xml:space="preserve">
<g>
	<g>
		<g>
			<path fill="#FFFFFF" stroke="#0071BC" stroke-width="6" d="M145.942,53.221c0,27.689-22.444,50.13-50.116,50.13
				c-27.692,0-50.131-22.44-50.131-50.13c0-27.67,22.439-50.113,50.131-50.113C123.498,3.108,145.942,25.55,145.942,53.221z"/>
			<path fill="#FFFFFF" stroke="#0071BC" stroke-width="6" d="M5.462,197.018v-50.846c0-24.971,20.234-45.211,45.213-45.211
				l37.089,27.277l60.127-27.277c24.971,0,45.211,20.24,45.211,45.211v50.846H5.462z"/>
			<line fill="none" stroke="#0071BC" stroke-width="6" x1="47.754" y1="196.076" x2="47.754" y2="152.227"/>
			<line fill="none" stroke="#0071BC" stroke-width="6" x1="148.745" y1="196.076" x2="148.745" y2="152.227"/>
		</g>
		<circle fill="#F7931E" cx="155.679" cy="75.981" r="34.558"/>
		<g>
			<path fill="#FFFFFF" d="M161.291,83.563h-12.52v-2.125c0-2.812,0.313-4.888,0.944-6.228c0.631-1.337,1.776-2.378,3.442-3.122
				l2.295-1.012c1.731-0.766,2.599-1.846,2.599-3.24c0-0.81-0.281-1.497-0.844-2.059c-0.562-0.563-1.249-0.844-2.058-0.844
				c-2.206,0-3.308,1.531-3.308,4.59h-11.644c0-4.094,0.943-7.435,2.833-10.023c1.395-1.912,3.207-3.431,5.434-4.556
				c2.228-1.125,4.533-1.687,6.918-1.687c4.229,0,7.79,1.4,10.682,4.202c2.891,2.801,4.337,6.272,4.337,10.412
				c0,5.108-2.07,8.695-6.211,10.765c-1.349,0.675-2.171,1.26-2.463,1.754C161.436,80.887,161.291,81.944,161.291,83.563z
				 M155.249,85.352c2.204,0,4.102,0.799,5.687,2.396c1.586,1.598,2.381,3.5,2.381,5.704c0,2.206-0.791,4.078-2.364,5.62
				c-1.575,1.54-3.477,2.312-5.704,2.312c-2.317,0-4.225-0.75-5.72-2.245c-1.497-1.497-2.243-3.403-2.243-5.72
				c0-2.25,0.774-4.158,2.328-5.721C151.166,86.135,153.044,85.352,155.249,85.352z"/>
		</g>
		<g>
			<path fill="#F7931E" d="M80.134,181.925l-7.479-16.589c-1.212-2.688-2.799-3.592-4.758-2.709
				c-0.798,0.359-1.362,0.951-1.689,1.776c-0.329,0.821-0.313,1.632,0.046,2.431c0.359,0.798,0.952,1.36,1.774,1.688
				c0.824,0.328,1.628,0.316,2.411-0.038c0.608-0.272,1.118-0.806,1.527-1.592l3.768,8.355c-0.85,0.496-1.506,0.848-1.964,1.056
				c-2.812,1.27-5.715,1.324-8.709,0.169c-2.993-1.155-5.137-3.167-6.428-6.033c-1.33-2.945-1.417-5.899-0.263-8.86
				c1.154-2.959,3.239-5.117,6.253-6.478c1.514-0.684,3.141-1.019,4.878-1.004c1.739,0.014,3.328,0.37,4.766,1.07
				c2.499,1.215,4.447,3.371,5.843,6.466l7.607,16.875L80.134,181.925z"/>
			<path fill="#F7931E" d="M79.353,149.287l7.584-3.419l5.147,11.417c0.519,1.149,1.256,1.507,2.216,1.073
				c0.948-0.427,1.162-1.216,0.643-2.363l-5.148-11.417l7.585-3.42l5.083,11.274c1.182,2.624,1.31,5.229,0.377,7.822
				c-0.93,2.591-2.658,4.457-5.187,5.596c-2.88,1.298-5.671,1.296-8.373-0.008c-2.103-1.021-3.81-2.984-5.121-5.891L79.353,149.287z
				"/>
			<path fill="#F7931E" d="M101.415,128.14c1.028-0.463,2.081-0.503,3.156-0.118c1.076,0.388,1.838,1.073,2.283,2.061
				c0.475,1.054,0.51,2.076,0.105,3.074c-0.406,0.997-1.163,1.744-2.272,2.243c-1.106,0.501-2.169,0.573-3.183,0.216
				c-1.016-0.355-1.759-1.062-2.235-2.114c-0.445-0.987-0.456-2.011-0.031-3.073C99.663,129.367,100.387,128.604,101.415,128.14z
				 M109.255,135.463l9.114,20.218l-7.582,3.417l-9.117-20.216L109.255,135.463z"/>
			<path fill="#F7931E" d="M130.588,125.845l-0.674,15.065l7.141-3.217l3.583,7.949l-19.489,8.784l0.614-15.088l-6.409,2.89
				l-3.565-7.909L130.588,125.845z"/>
			<path fill="#F7931E" d="M151.152,116.575l-0.675,15.065l7.139-3.22l3.582,7.95l-19.488,8.786l0.613-15.089l-6.406,2.889
				l-3.564-7.908L151.152,116.575z"/>
		</g>
	</g>
	<path fill="none" stroke="#0071BC" stroke-width="5" stroke-linecap="round" d="M76.578,74.999c0,4.449,8.171,8.05,18.267,8.05"/>
	<path fill="none" stroke="#0071BC" stroke-width="5" stroke-linecap="round" d="M112.806,75.048c0,4.451-8.173,8.05-18.269,8.05"/>
	<circle fill="none" stroke="#0A71B4" stroke-width="4" cx="77.859" cy="50.628" r="4.009"/>
	<circle fill="none" stroke="#0A71B4" stroke-width="4" cx="111.125" cy="50.628" r="4.009"/>
</g>
</svg>
