<?xml version="1.0" encoding="utf-8"?>
<!-- Generator: Adobe Illustrator 13.0.0, SVG Export Plug-In . SVG Version: 6.00 Build 14948)  -->
<!DOCTYPE svg PUBLIC "-//W3C//DTD SVG 1.1//EN" "http://www.w3.org/Graphics/SVG/1.1/DTD/svg11.dtd">
<svg version="1.1" id="Calque_1" xmlns="http://www.w3.org/2000/svg" xmlns:xlink="http://www.w3.org/1999/xlink" x="0px" y="0px"
	 width="250px" height="250px" viewBox="0 0 250 250" enable-background="new 0 0 250 250" xml:space="preserve">
<g>
	<path fill="#0088D3" d="M111.716,60.056c0.933,0,1.868,0,2.803,0c1.141,1.349,4.14,0.84,6.537,0.934
		c-0.598,1.843,1.359,1.132,1.4,2.334c9.545-1.169,18.571,0.216,23.353,5.14c7.478-1.818,12.041,0.207,15.877,4.203
		c5.062-1.061,9.688,1.641,15.414,1.4c-0.535,2.869,3.049,1.62,4.201,2.803c3.131,2.627,8.135,3.384,13.543,3.735
		c0.625,1.243,2.172,1.565,2.336,3.268c1.473,0.525,1.061,0.044,2.803,0c0.766,2.627,2.004,4.67,2.805,6.073
		c0,0.621,0,1.247,0,1.867c-0.156,0-0.312,0-0.469,0c-0.762,1.577-1.025,3.643-2.336,4.672c-4.394-2.718-9.045,1.859-14.477,0.463
		c-0.848,1.681,1.342,2.636,0.467,2.805c-6.676,3.954-11.617-1.167-18.216-0.467c-2.87-0.709-5.805-1.355-7.938-2.801
		c-7.353,0.858-15.686-2.108-21.481,1.398c-5.44-1.83-11.515,0.396-16.345,1.869c-0.391,1.167-3.65-0.538-3.271,1.399
		c-0.733-0.044-1.619,0.066-1.4-0.933c-1.863,2.496-6.832,1.886-9.341,3.737c-2.026-2.384-7.016-2.038-9.808-1.402
		c-1.076,1.104-2.191,2.168-4.203,2.335c-0.801,0.598-0.579,2.224-1.869,2.334c0.354,7.267-6.466,11.234-14.477,11.676
		c-1.97,3.011-4.423,5.541-6.538,8.407c-0.468,0-0.936,0-1.4,0c-4.331-1.895-7.274-5.182-8.875-9.808
		c-4.293-0.695-8.003,0.062-12.141,1.401c-1.279,0.425,0.829,1.634-0.468,2.333c-5.375,2.878-5.778,10.725-9.806,14.949
		c-0.577,1.508,1.51,0.355,0.934,1.867c-1.444-0.047-1.392,1.407-1.403,2.801c-1.215,2.207-2.851,3.998-2.8,7.469
		c-4.578,1.498-3.259,8.888-8.408,9.812c-1.439,7.214-0.299,18.604-9.806,21.948c0.366-9.947-0.62-18.42,3.736-25.218
		c-0.995-1.498-1.746-3.238-1.399-6.07c8.654-9.805,6.592-26.956,17.278-35.961c3.258,0.611,4.381-0.913,6.071-1.867
		c-1.307-4.107,2.966-5.625,2.335-9.81c4.783-4.245,8.833-9.223,12.142-14.943c5.242-0.86,8.585-2.687,13.544-0.465
		c4.023-3.452,9.231-5.711,14.478-7.941c-0.954-1.735,0.164-2.935,0.468-4.67c1.604,0.206,2.616-0.184,3.735-0.467
		c0.776-4.673,5.055-5.844,7.005-9.342c4.32,0.198,6.064,2.967,11.676,1.87C108.772,63.027,111.588,62.886,111.716,60.056z"/>
	<path fill="#9FB93A" d="M100.976,133.846c0.465,0,0.933,0,1.399,0c0,0.622,0,1.245,0,1.867
		C100.816,136.184,100.844,135.062,100.976,133.846z"/>
	<path fill="#9FB93A" d="M102.843,136.646c-0.408,0.684-0.372,1.81-1.867,1.401c0-0.626,0-1.248,0-1.866
		C101.952,135.98,102.21,136.499,102.843,136.646z"/>
	<path fill="#FBC13A" d="M147.209,174.939c1.072,0.953,0.17,3.883,0.467,5.604C146.604,179.596,147.507,176.67,147.209,174.939z"/>
	<path fill="#FBC13A" d="M172.43,175.876c1.146-1.188,2.434-2.235,3.271-3.733c0.396-0.091,0.438,0.182,0.468,0.463
		C174.714,173.491,174.361,175.477,172.43,175.876z"/>
	<path fill="#F7931E" d="M121.991,99.752c-0.918,0.35,10.903-3.699,16.345-1.869c5.798-3.507,14.131-0.541,21.482-1.398
		c2.134,1.446,5.065,2.092,7.938,2.801c-0.013,0.454-0.568,0.362-0.933,0.467c0.243,6.782-1.57,11.508-6.071,13.543
		c0,0.622,0,1.247,0,1.868c-1.705,0.475-2.941,1.417-4.203,2.335c-3.557-3.452-10.273,0.94-12.607,3.271
		c-5.854-2.377-18.25-1.936-21.95,3.269c-0.663,0.89-1.443,1.669-2.337,2.334c-0.934,0-1.866,0-2.801,0
		c-8.145-0.729-15.275-2.47-18.214-8.408c1.876-2.326,3.953-4.451,3.736-8.874c-2.311,0.025-4.118,0.553-6.072,0.935
		c-0.083-3.198,1.083-5.144,1.869-7.472c2.792-0.636,7.781-0.982,9.808,1.402c2.509-1.851,7.478-1.241,9.341-3.737
		c-0.219,0.999,0.827,0.94,1.4,0.933"/>
	<path fill="#9FB93A" d="M122.925,106.757c-0.156,0-0.312,0-0.469,0"/>
	<path fill="#D8D710" d="M142.539,144.586"/>
	<path fill="#39B54A" d="M62.212,138.05c2.288-1.704-0.922-3.401-0.468-6.073c4.771,0.567,5.624-2.783,8.874-3.733
		c-0.115-0.511-0.928-0.315-0.933-0.937c0.465,0,0.933,0,1.4,0c2.115-2.866,4.568-5.396,6.538-8.407
		c8.011-0.442,14.831-4.41,14.477-11.676c1.29-0.11,1.067-1.737,1.869-2.334c2.012-0.167,3.127-1.231,4.203-2.335
		c-0.786,2.328-1.951,4.274-1.869,7.472c1.954-0.381,3.761-0.909,6.072-0.935c0.217,4.423-1.859,6.548-3.736,8.874
		c2.939,5.938,10.069,7.679,18.214,8.408c-0.209,2.124-2.658,2.013-2.801,4.203c0.068,0.862,1.58,0.288,1.867,0.935
		c0.982,7.047,0.329,19.521,0.465,30.823c2.333,1.714,5.395,2.698,8.408,3.733c0,2.646,0,5.296,0,7.938
		c-1.151,3.679-2.89,6.765-6.072,8.407c-1.301-1.656-4.386-1.531-5.136-3.734c1.767-5.345-1.594-8.773-2.802-12.611
		c-1.852-0.172-4.475,0.429-5.605-0.465c-0.864-1.004-0.314-3.424-0.466-5.141c-2.18,0-4.358,0-6.539,0
		c0.611-5.747-5.453-4.818-3.735-11.674c-1.556-0.473-1.958-2.09-4.67-1.403c-0.72,1.618-0.414,4.261-0.468,6.538
		c-1.274-0.339-0.938,0.93-1.868,0.938c-0.914-8.582-8.022-10.975-12.142-16.35c-0.542,0.395-1.251,0.618-2.336,0.469
		c-0.851,0.703-1.098,2.015-1.866,2.805c-1.484-1.631-4.189-2.043-4.669-4.67c-1.447,0.576-1.937,2.109-2.337,3.732
		c-1.621-1.803-4.031-0.973-6.536-0.935"/>
	<path fill="#FBB03B" d="M136.468,144.586c0,0.623,0,1.244,0,1.865c2.334,0,4.671,0,7.005,0c1.713,2.808,2.241,6.79,3.736,9.812
		c4.827,0,9.652,0,14.477,0c2.352,2.788,6.037,4.234,6.539,8.87c1.164,0.394,2.504,0.612,4.205,0.47
		c1.647,1.621,2.604,3.932,3.271,6.539c-0.836,1.498-2.124,2.547-3.271,3.732c-1.969,0.368-0.91,3.764-1.869,5.141
		c-6.129,2.276-9.621,7.188-19.612,5.602c0.586-3.698-2.378-3.852-3.271-6.072c-0.298-1.723,0.604-4.65-0.468-5.604
		c0-0.153,0-0.311,0-0.467c-2.034-5.438-12.259-2.685-17.746-4.67c-1.59,1.367-2.42,3.498-4.67,4.202c0-2.646,0-5.292,0-7.938
		c-3.013-1.035-6.075-2.021-8.408-3.733c-0.137-11.303,0.517-23.776-0.465-30.823c-0.288-0.646-1.799-0.072-1.867-0.935
		c0.143-2.19,2.592-2.079,2.801-4.203c0.935,0,1.867,0,2.801,0c0.894-0.665,1.674-1.445,2.337-2.334
		c3.558,4.226,7.446,8.118,11.675,11.674c-1.417,0.483-1.417,5.118,0,5.604"/>
	<path fill="#9FB93A" d="M53.34,129.174c-0.145,1.414-1.446,1.669-0.936,3.737C49.855,132.169,52.742,129.779,53.34,129.174z"/>
	<path fill="#F7931E" d="M66.416,137.115c0.48,2.627,3.186,3.039,4.669,4.67c0.769-0.79,1.016-2.1,1.866-2.805
		c1.085,0.149,1.795-0.074,2.336-0.467c4.12,5.375,11.228,7.766,12.142,16.348c-1.556,0-3.113,0-4.669,0
		c-0.464,2.492,0.406,6.32-3.269,5.603c-1.446-0.112,0.729-3.841-1.402-3.271c-5.826,1.34-8.107,6.217-14.011,7.476
		c-2.075-0.728-1.229-4.374-1.4-7.007c-1.43-1.992-5.968-0.883-8.407-1.866c-1.815-0.209-0.165-3.883-1.401-4.67
		c-2.891,1.933-3.854,5.794-7.939,6.536c-2.658-1.855-3.97-5.057-5.604-7.938c1.75-2.326,2.343-8.343-1.403-8.875
		c0.011-1.394-0.041-2.848,1.403-2.801c0.577-1.512-1.51-0.359-0.934-1.867c4.028-4.225,4.431-12.071,9.806-14.949
		c1.297-0.699-0.811-1.908,0.468-2.333c4.138-1.339,7.848-2.096,12.141-1.401c1.601,4.625,4.544,7.913,8.875,9.808
		c0.004,0.619,0.817,0.428,0.933,0.937c-3.25,0.952-4.102,4.303-8.874,3.735"/>
	<path fill="#8CC63F" d="M133.666,141.316c-1.417-0.485-1.417-5.119,0-5.604c-4.229-3.558-8.117-7.448-11.675-11.674
		c3.7-5.205,16.097-5.646,21.95-3.269c2.334-2.33,9.053-6.722,12.607-3.271c1.262-0.918,2.498-1.861,4.203-2.335
		c2.255,10.821,13.648,12.504,18.684,20.549c2.48-0.304,3.771,0.585,4.67,1.867c0.099,1.073-0.916,4.546-0.469,7.474
		c-1.871,1.863-4.679,2.795-4.201,7.006c-1.099,0.459-2.295,0.819-3.736,0.934c0.883,6.178-2.768,7.82-3.27,12.611
		c-1.701,0.145-3.041-0.076-4.205-0.47c-0.502-4.636-4.188-6.082-6.539-8.872c-4.822,0-9.648,0-14.478,0
		c-1.495-3.021-2.022-7.004-3.735-9.812c-2.334,0-4.672,0-7.006,0c0-0.621,0-1.242,0-1.865 M140.203,144.586
		c0.779,0,1.559,0,2.336,0 M157.95,141.316c-0.778,0-1.558,0-2.335,0"/>
</g>
<g>
	<g>
		<path fill="#0071BC" d="M232.693,124.556c-1.096,10.424-7.252,19.898-14.146,26.738c-4.467,4.332-9.096,8.006-13.67,11.14
			c0.571,0.623,1.074,1.301,1.514,2.031c0.396,0.653,0.729,1.34,0.996,2.066c4.84-3.309,9.777-7.215,14.596-11.872
			c7.619-7.591,14.806-18.546,15.588-31.124c-0.752,0.314-1.543,0.561-2.359,0.735C234.4,124.444,233.555,124.539,232.693,124.556z"
			/>
		<path fill="#0071BC" d="M121.44,192.889c-0.109-0.521-0.153-1.063-0.166-1.619c-12.55,1.972-24.908,3.068-39.318,4.143
			c14.521,0.311,27.1,0.305,39.979-0.919C121.726,193.979,121.555,193.445,121.44,192.889z"/>
		<path fill="#0071BC" d="M184.654,176.221c-0.353-0.727-0.633-1.486-0.84-2.287c-5.045,2.183-9.39,3.743-12.504,4.91
			c-12.312,4.04-22.944,6.963-32.903,9.18c0.241,0.652,0.397,1.35,0.477,2.064c0.041,0.337,0.104,0.665,0.104,1.012
			c0,0.359-0.066,0.7-0.109,1.049c10.292-1.863,21.292-4.646,34.025-8.808c3.232-1.219,7.74-2.821,12.99-5.09
			C185.422,177.615,185.004,176.941,184.654,176.221z"/>
		<path fill="#0071BC" d="M138.884,190.088c-0.079-0.717-0.235-1.412-0.477-2.064c-5.878,1.31-11.532,2.371-17.132,3.246
			c0.012,0.556,0.057,1.101,0.166,1.619c0.114,0.557,0.285,1.092,0.496,1.604c5.526-0.526,11.125-1.288,16.942-2.345
			c0.043-0.349,0.109-0.688,0.109-1.049C138.988,190.753,138.925,190.425,138.884,190.088z"/>
		<path fill="#0071BC" d="M204.878,162.434c-7.489,5.133-14.819,8.799-21.063,11.5c0.207,0.801,0.49,1.562,0.84,2.287
			c0.352,0.721,0.77,1.396,1.242,2.03c6.348-2.737,13.787-6.456,21.49-11.72c-0.266-0.727-0.601-1.413-0.996-2.066
			C205.952,163.734,205.449,163.057,204.878,162.434z"/>
		<path fill="#0071BC" d="M229.266,98.268c-5.138-6.607-11.982-11.947-18.729-16.122C158.898,52.85,103.514,60.024,104.344,59.063
			c0.039,0.112-13.193-0.06-33.11,4.221c-9.912,2.204-21.531,5.663-33.157,11.958c-11.082,6.057-24.59,16.157-25.918,32.484
			c-0.15,17.24,15.971,26.922,28.496,32.25c13.433,5.575,27.352,8.103,40.1,9.037c25.63,2.286,46.731-3.406,56.296-8.062
			c8.838-4.077,16.731-9.82,19.883-18.336c3.571-8.955-2.859-17.539-8.791-21.2c-5.996-3.58-12.268-5.905-18.865-7.352
			c-0.004,0.325-0.026,0.647-0.047,0.968c-0.024,0.409-0.062,0.813-0.114,1.213c6.139,1.916,11.812,4.512,16.991,8.024
			c5.265,4.064,9.488,10.178,6.656,16.855c-2.522,6.48-9.404,11.736-17.703,15.49c-8.889,4.305-29.043,9.826-53.942,7.603
			c-12.359-0.896-25.846-3.375-38.59-8.672c-12.182-4.987-26.068-14.451-25.567-27.596c0.888-13.159,12.747-22.8,23.424-28.504
			c11.015-5.973,22.273-9.354,31.89-11.491c19.352-4.166,32.303-4.012,32.259-4.12c-1.045,0.846,53.944-5.841,103.462,22.391
			c6.15,3.774,12.156,8.52,16.734,14.098c0.678-0.477,1.396-0.891,2.162-1.238C227.646,98.74,228.438,98.467,229.266,98.268z"/>
		<path fill="#0071BC" d="M237.346,116.484c-0.996-6.914-3.996-12.965-8.08-18.217c-0.826,0.2-1.619,0.473-2.373,0.816
			c-0.764,0.347-1.482,0.761-2.16,1.238c4.072,4.97,7.017,10.598,7.854,16.821c0.35,2.507,0.363,4.986,0.107,7.413
			c0.861-0.017,1.707-0.111,2.519-0.285c0.815-0.175,1.606-0.421,2.361-0.735C237.715,121.233,237.67,118.884,237.346,116.484z"/>
		<path fill="#0071BC" d="M105.571,92.158c8.554,0,16.603,1.045,23.658,2.875c0.021-0.321,0.043-0.644,0.047-0.968
			C121.838,92.432,113.982,91.92,105.571,92.158z"/>
		<path fill="#0071BC" d="M105.571,92.158c8.533,0.551,16.358,1.847,23.542,4.088c0.053-0.4,0.09-0.804,0.115-1.213
			C122.173,93.203,114.125,92.158,105.571,92.158z"/>
	</g>
</g>
<g>
	<circle fill="#FFFFFF" stroke="#0071BC" stroke-width="4" cx="84.644" cy="44.34" r="8.262"/>
	<path fill="#FFFFFF" stroke="#0071BC" stroke-width="4" d="M69.316,70.037v-8.38c0-4.118,3.337-7.454,7.454-7.454h16.026
		c4.116,0,7.453,3.336,7.453,7.454v8.38H69.316z"/>
	<line fill="none" stroke="#0071BC" stroke-width="4" x1="76.289" y1="69.881" x2="76.289" y2="62.653"/>
	<line fill="none" stroke="#0071BC" stroke-width="4" x1="92.937" y1="69.881" x2="92.937" y2="62.653"/>
</g>
<g>
	<circle fill="#FFFFFF" stroke="#0071BC" stroke-width="4" cx="19.247" cy="105.082" r="8.262"/>
	<path fill="#FFFFFF" stroke="#0071BC" stroke-width="4" d="M3.919,130.777v-8.379c0-4.118,3.336-7.455,7.454-7.455h16.026
		c4.116,0,7.454,3.337,7.454,7.455v8.379H3.919z"/>
	<line fill="none" stroke="#0071BC" stroke-width="4" x1="10.892" y1="130.623" x2="10.892" y2="123.395"/>
	<line fill="none" stroke="#0071BC" stroke-width="4" x1="27.54" y1="130.623" x2="27.54" y2="123.395"/>
</g>
<g>
	<circle fill="#FFFFFF" stroke="#0071BC" stroke-width="4" cx="116.512" cy="102.346" r="8.262"/>
	<path fill="#FFFFFF" stroke="#0071BC" stroke-width="4" d="M101.184,128.043v-8.38c0-4.118,3.336-7.454,7.454-7.454h16.026
		c4.115,0,7.454,3.336,7.454,7.454v8.38H101.184z"/>
	<line fill="none" stroke="#0071BC" stroke-width="4" x1="108.156" y1="127.889" x2="108.156" y2="120.659"/>
	<line fill="none" stroke="#0071BC" stroke-width="4" x1="124.806" y1="127.889" x2="124.806" y2="120.659"/>
</g>
<g>
	<circle fill="#FFFFFF" stroke="#0071BC" stroke-width="4" cx="78.225" cy="176.757" r="8.262"/>
	<path fill="#FFFFFF" stroke="#0071BC" stroke-width="4" d="M62.897,202.454v-8.381c0-4.118,3.336-7.454,7.453-7.454h16.026
		c4.117,0,7.454,3.336,7.454,7.454v8.381H62.897z"/>
	<line fill="none" stroke="#0071BC" stroke-width="4" x1="69.87" y1="202.298" x2="69.87" y2="195.068"/>
	<line fill="none" stroke="#0071BC" stroke-width="4" x1="86.519" y1="202.298" x2="86.519" y2="195.068"/>
</g>
<g>
	<circle fill="#FFFFFF" stroke="#0071BC" stroke-width="4" cx="170.509" cy="163.517" r="8.263"/>
	<path fill="#FFFFFF" stroke="#0071BC" stroke-width="4" d="M155.182,189.214v-8.381c0-4.117,3.336-7.454,7.451-7.454h16.028
		c4.116,0,7.452,3.337,7.452,7.454v8.381H155.182z"/>
	<line fill="none" stroke="#0071BC" stroke-width="4" x1="162.152" y1="189.059" x2="162.152" y2="181.83"/>
	<line fill="none" stroke="#0071BC" stroke-width="4" x1="178.802" y1="189.059" x2="178.802" y2="181.83"/>
</g>
<g>
	<circle fill="#FFFFFF" stroke="#0071BC" stroke-width="4" cx="231.415" cy="119.376" r="8.263"/>
	<path fill="#FFFFFF" stroke="#0071BC" stroke-width="4" d="M216.087,145.073v-8.38c0-4.118,3.336-7.455,7.453-7.455h16.024
		c4.119,0,7.455,3.337,7.455,7.455v8.38H216.087z"/>
	<line fill="none" stroke="#0071BC" stroke-width="4" x1="223.059" y1="144.918" x2="223.059" y2="137.689"/>
	<line fill="none" stroke="#0071BC" stroke-width="4" x1="239.709" y1="144.918" x2="239.709" y2="137.689"/>
</g>
<g>
	<circle fill="#FFFFFF" stroke="#0071BC" stroke-width="4" cx="181.189" cy="55.116" r="8.263"/>
	<path fill="#FFFFFF" stroke="#0071BC" stroke-width="4" d="M165.861,80.813v-8.38c0-4.118,3.337-7.454,7.453-7.454h16.024
		c4.117,0,7.454,3.336,7.454,7.454v8.38H165.861z"/>
	<line fill="none" stroke="#0071BC" stroke-width="4" x1="172.834" y1="80.657" x2="172.834" y2="73.429"/>
	<line fill="none" stroke="#0071BC" stroke-width="4" x1="189.482" y1="80.657" x2="189.482" y2="73.429"/>
</g>
</svg>
