<?xml version="1.0" encoding="utf-8"?>
<!-- Generator: Adobe Illustrator 13.0.0, SVG Export Plug-In . SVG Version: 6.00 Build 14948)  -->
<!DOCTYPE svg PUBLIC "-//W3C//DTD SVG 1.1//EN" "http://www.w3.org/Graphics/SVG/1.1/DTD/svg11.dtd">
<svg version="1.1" id="Calque_1" xmlns="http://www.w3.org/2000/svg" xmlns:xlink="http://www.w3.org/1999/xlink" x="0px" y="0px"
	 width="250px" height="250px" viewBox="0 0 250 250" enable-background="new 0 0 250 250" xml:space="preserve">
<g>
	<path fill-rule="evenodd" clip-rule="evenodd" fill="#0088D3" d="M111.716,60.056c0.933,0,1.868,0,2.803,0
		c1.141,1.349,4.14,0.84,6.537,0.934c-0.598,1.843,1.359,1.132,1.4,2.334c9.545-1.169,18.572,0.216,23.352,5.14
		c7.477-1.818,12.042,0.207,15.878,4.203c5.062-1.061,9.688,1.641,15.413,1.4c-0.535,2.869,3.049,1.62,4.202,2.803
		c3.131,2.627,8.135,3.384,13.543,3.735c0.625,1.243,2.172,1.565,2.336,3.268c1.473,0.525,1.059,0.044,2.802,0
		c0.765,2.627,2.005,4.67,2.804,6.073c0,0.621,0,1.247,0,1.867c-0.156,0-0.313,0-0.467,0c-0.762,1.577-1.027,3.643-2.337,4.672
		c-4.393-2.718-9.044,1.859-14.476,0.463c-0.848,1.681,1.341,2.636,0.467,2.805c-6.676,3.954-11.617-1.167-18.216-0.467
		c-2.871-0.709-5.805-1.355-7.938-2.801c-7.353,0.858-15.686-2.108-21.483,1.398c-5.441-1.83-11.514,0.396-16.345,1.869
		c-0.391,1.167-3.65-0.538-3.271,1.399c-0.733-0.044-1.619,0.066-1.4-0.933c-1.863,2.496-6.832,1.886-9.341,3.737
		c-2.026-2.384-7.016-2.038-9.808-1.402c-1.076,1.104-2.191,2.168-4.203,2.335c-0.801,0.598-0.579,2.224-1.869,2.334
		c0.354,7.267-6.466,11.234-14.477,11.676c-1.97,3.011-4.423,5.541-6.538,8.406c-0.468,0-0.936,0-1.4,0
		c-4.331-1.894-7.274-5.181-8.875-9.807c-4.293-0.695-8.003,0.062-12.141,1.401c-1.279,0.425,0.829,1.634-0.468,2.333
		c-5.375,2.878-5.778,10.725-9.806,14.948c-0.577,1.508,1.51,0.356,0.934,1.868c-1.444-0.047-1.392,1.407-1.403,2.8
		c-1.215,2.208-2.851,3.999-2.8,7.47c-4.578,1.498-3.259,8.886-8.408,9.811c-1.439,7.214-0.299,18.602-9.806,21.948
		c0.366-9.947-0.62-18.42,3.736-25.216c-0.995-1.499-1.746-3.24-1.399-6.072c8.654-9.803,6.592-26.956,17.278-35.961
		c3.258,0.611,4.381-0.913,6.071-1.867c-1.307-4.107,2.966-5.625,2.335-9.81c4.783-4.245,8.833-9.223,12.142-14.943
		c5.242-0.86,8.585-2.687,13.544-0.465c4.023-3.452,9.231-5.711,14.478-7.941c-0.954-1.735,0.164-2.935,0.468-4.67
		c1.604,0.206,2.616-0.184,3.735-0.467c0.776-4.673,5.055-5.844,7.005-9.342c4.32,0.198,6.064,2.967,11.676,1.87
		C108.772,63.027,111.588,62.886,111.716,60.056z"/>
	<path fill-rule="evenodd" clip-rule="evenodd" fill="#9FB93A" d="M100.976,133.845c0.465,0,0.933,0,1.399,0
		c0,0.623,0,1.246,0,1.868C100.816,136.183,100.844,135.063,100.976,133.845z"/>
	<path fill-rule="evenodd" clip-rule="evenodd" fill="#9FB93A" d="M102.843,136.646c-0.408,0.684-0.372,1.81-1.867,1.403
		c0-0.626,0-1.248,0-1.868C101.952,135.981,102.21,136.499,102.843,136.646z"/>
	<path fill-rule="evenodd" clip-rule="evenodd" fill="#FBC13A" d="M147.209,174.94c1.072,0.952,0.17,3.882,0.467,5.604
		C146.604,179.595,147.507,176.67,147.209,174.94z"/>
	<path fill-rule="evenodd" clip-rule="evenodd" fill="#FBC13A" d="M172.429,175.876c1.146-1.188,2.434-2.235,3.27-3.734
		c0.395-0.09,0.439,0.181,0.468,0.463C174.714,173.491,174.361,175.476,172.429,175.876z"/>
	<path fill-rule="evenodd" clip-rule="evenodd" fill="#F7931E" d="M121.991,99.752c-0.918,0.35,10.904-3.699,16.345-1.869
		c5.798-3.507,14.131-0.541,21.483-1.398c2.133,1.446,5.066,2.092,7.938,2.801c-0.013,0.454-0.57,0.362-0.933,0.467
		c0.245,6.782-1.57,11.508-6.071,13.543c0,0.622,0,1.247,0,1.868c-1.705,0.475-2.943,1.417-4.203,2.335
		c-3.557-3.452-10.274,0.94-12.608,3.271c-5.854-2.377-18.25-1.936-21.951,3.269c-0.663,0.89-1.443,1.669-2.337,2.334
		c-0.934,0-1.866,0-2.801,0c-8.145-0.729-15.275-2.47-18.214-8.408c1.876-2.326,3.953-4.451,3.736-8.874
		c-2.311,0.025-4.118,0.553-6.072,0.935c-0.083-3.198,1.083-5.144,1.869-7.472c2.792-0.636,7.781-0.982,9.808,1.402
		c2.509-1.851,7.478-1.241,9.341-3.737c-0.219,0.999,0.827,0.94,1.4,0.933"/>
	<path fill-rule="evenodd" clip-rule="evenodd" fill="#9FB93A" d="M122.925,106.757c-0.156,0-0.312,0-0.469,0"/>
	<path fill-rule="evenodd" clip-rule="evenodd" fill="#D8D710" d="M142.539,144.586"/>
	<path fill-rule="evenodd" clip-rule="evenodd" fill="#F7931E" d="M56.141,140.85 M62.212,138.05
		c2.288-1.705-0.922-3.401-0.468-6.073c4.771,0.567,5.624-2.783,8.874-3.735c-0.115-0.509-0.928-0.315-0.933-0.936
		c0.465,0,0.933,0,1.4,0c2.115-2.865,4.568-5.395,6.538-8.406c8.011-0.442,14.831-4.41,14.477-11.676
		c1.29-0.11,1.067-1.737,1.869-2.334c2.012-0.167,3.127-1.231,4.203-2.335c-0.786,2.328-1.951,4.274-1.869,7.472
		c1.954-0.381,3.761-0.909,6.072-0.935c0.217,4.423-1.859,6.548-3.736,8.874c2.939,5.938,10.069,7.678,18.214,8.408
		c-0.209,2.124-2.658,2.012-2.801,4.203c0.068,0.862,1.58,0.288,1.867,0.935c0.982,7.046,0.329,19.521,0.465,30.823
		c2.333,1.714,5.395,2.698,8.408,3.733c0,2.648,0,5.296,0,7.94c-1.151,3.678-2.89,6.764-6.072,8.407
		c-1.301-1.656-4.386-1.531-5.136-3.736c1.767-5.343-1.594-8.773-2.802-12.611c-1.852-0.172-4.475,0.429-5.605-0.464
		c-0.864-1.005-0.314-3.425-0.466-5.14c-2.18,0-4.358,0-6.539,0c0.611-5.747-5.453-4.819-3.735-11.674
		c-1.556-0.471-1.958-2.09-4.67-1.403c-0.72,1.618-0.414,4.259-0.468,6.538c-1.274-0.339-0.938,0.929-1.868,0.938
		c-0.914-8.583-8.022-10.974-12.142-16.349c-0.542,0.393-1.251,0.618-2.336,0.468c-0.851,0.704-1.098,2.014-1.866,2.804
		c-1.484-1.631-4.189-2.043-4.669-4.67c-1.447,0.577-1.937,2.11-2.337,3.734c-1.621-1.803-4.031-0.973-6.536-0.935 M47.734,140.85
		 M51.003,140.85 M59.411,139.449"/>
	<path fill-rule="evenodd" clip-rule="evenodd" fill="#F7931E" d="M128.994,144.586 M128.994,139.915 M131.331,141.316
		 M131.796,143.654 M136.468,144.586c0,0.623,0,1.244,0,1.865c2.334,0,4.67,0,7.004,0c1.714,2.808,2.242,6.79,3.737,9.812
		c4.827,0,9.653,0,14.477,0c2.35,2.79,6.036,4.236,6.539,8.872c1.163,0.393,2.503,0.612,4.204,0.469
		c1.648,1.62,2.604,3.931,3.27,6.538c-0.836,1.499-2.124,2.547-3.27,3.734c-1.968,0.368-0.91,3.762-1.868,5.14
		c-6.129,2.277-9.621,7.189-19.614,5.601c0.586-3.698-2.376-3.852-3.271-6.072c-0.297-1.722,0.605-4.651-0.467-5.604
		c0-0.153,0-0.309,0-0.466c-2.034-5.438-12.259-2.684-17.746-4.67c-1.59,1.368-2.42,3.499-4.67,4.203c0-2.645,0-5.292,0-7.94
		c-3.013-1.035-6.075-2.02-8.408-3.733c-0.137-11.303,0.517-23.777-0.465-30.823c-0.288-0.646-1.799-0.072-1.867-0.935
		c0.143-2.191,2.592-2.079,2.801-4.203c0.935,0,1.867,0,2.801,0c0.894-0.665,1.674-1.445,2.337-2.334
		c3.558,4.225,7.448,8.118,11.675,11.674c-1.417,0.484-1.417,5.118,0,5.604"/>
	<path fill-rule="evenodd" clip-rule="evenodd" fill="#9FB93A" d="M53.34,129.174c-0.145,1.414-1.446,1.669-0.936,3.737
		C49.855,132.169,52.742,129.78,53.34,129.174z"/>
	<path fill-rule="evenodd" clip-rule="evenodd" fill="#F7931E" d="M51.003,140.85 M47.734,140.85 M66.416,137.115
		c0.48,2.627,3.186,3.039,4.669,4.67c0.769-0.79,1.016-2.1,1.866-2.804c1.085,0.15,1.795-0.075,2.336-0.468
		c4.12,5.375,11.228,7.766,12.142,16.349c-1.556,0-3.113,0-4.669,0c-0.464,2.492,0.406,6.319-3.269,5.602
		c-1.446-0.113,0.729-3.841-1.402-3.27c-5.826,1.339-8.107,6.216-14.011,7.475c-2.075-0.728-1.229-4.374-1.4-7.007
		c-1.43-1.992-5.968-0.882-8.407-1.866c-1.815-0.209-0.165-3.883-1.401-4.67c-2.891,1.932-3.854,5.794-7.939,6.536
		c-2.658-1.855-3.97-5.057-5.604-7.938c1.75-2.326,2.343-8.341-1.403-8.874c0.011-1.393-0.041-2.847,1.403-2.8
		c0.577-1.512-1.51-0.36-0.934-1.868c4.028-4.224,4.431-12.07,9.806-14.948c1.297-0.699-0.811-1.908,0.468-2.333
		c4.138-1.339,7.848-2.096,12.141-1.401c1.601,4.625,4.544,7.913,8.875,9.807c0.004,0.62,0.817,0.427,0.933,0.936
		c-3.25,0.952-4.102,4.303-8.874,3.735 M56.141,140.85"/>
	<path fill-rule="evenodd" clip-rule="evenodd" fill="#F7931E" d="M133.666,141.316c-1.417-0.485-1.417-5.119,0-5.604
		c-4.228-3.557-8.117-7.449-11.675-11.674c3.701-5.205,16.097-5.646,21.951-3.269c2.334-2.33,9.052-6.722,12.608-3.271
		c1.26-0.918,2.498-1.861,4.203-2.335c2.255,10.821,13.649,12.504,18.682,20.549c2.482-0.304,3.772,0.585,4.67,1.867
		c0.099,1.073-0.916,4.546-0.468,7.474c-1.872,1.863-4.678,2.794-4.202,7.005c-1.097,0.46-2.295,0.82-3.736,0.933
		c0.883,6.178-2.767,7.821-3.27,12.612c-1.701,0.144-3.041-0.076-4.204-0.469c-0.503-4.636-4.189-6.082-6.539-8.872
		c-4.823,0-9.649,0-14.477,0c-1.495-3.021-2.023-7.004-3.737-9.812c-2.334,0-4.67,0-7.004,0c0-0.621,0-1.242,0-1.865
		 M136.936,144.586 M136.936,142.253 M140.203,144.586c0.78,0,1.558,0,2.336,0 M146.743,142.253 M148.608,141.316 M152.346,144.586
		 M152.814,141.785 M155.148,141.785 M153.28,145.989 M157.95,141.316c-0.778,0-1.558,0-2.335,0"/>
</g>
<g>
	<g>
		<path fill="#0071BC" d="M232.693,124.556c-1.096,10.425-7.252,19.898-14.146,26.738c-4.467,4.332-9.096,8.006-13.67,11.139
			c0.571,0.623,1.074,1.302,1.513,2.032c0.396,0.653,0.73,1.34,0.996,2.066c4.84-3.309,9.778-7.214,14.596-11.872
			c7.62-7.59,14.805-18.546,15.589-31.124c-0.753,0.314-1.544,0.561-2.361,0.735C234.4,124.444,233.554,124.539,232.693,124.556z"/>
		<path fill="#0071BC" d="M121.44,192.889c-0.109-0.521-0.153-1.065-0.166-1.619c-12.55,1.97-24.908,3.068-39.318,4.141
			c14.521,0.31,27.1,0.305,39.979-0.919C121.726,193.979,121.555,193.445,121.44,192.889z"/>
		<path fill="#0071BC" d="M184.654,176.221c-0.351-0.727-0.633-1.487-0.84-2.288c-5.044,2.182-9.388,3.744-12.504,4.911
			c-12.312,4.04-22.944,6.963-32.903,9.18c0.241,0.652,0.397,1.348,0.477,2.064c0.041,0.337,0.104,0.665,0.104,1.012
			c0,0.359-0.066,0.7-0.109,1.049c10.292-1.865,21.292-4.648,34.025-8.808c3.233-1.219,7.741-2.822,12.991-5.09
			C185.422,177.615,185.004,176.941,184.654,176.221z"/>
		<path fill="#0071BC" d="M138.884,190.088c-0.079-0.717-0.235-1.412-0.477-2.064c-5.878,1.308-11.532,2.37-17.132,3.246
			c0.012,0.554,0.057,1.099,0.166,1.619c0.114,0.557,0.285,1.091,0.496,1.603c5.526-0.526,11.125-1.288,16.942-2.343
			c0.043-0.349,0.109-0.689,0.109-1.049C138.988,190.753,138.925,190.425,138.884,190.088z"/>
		<path fill="#0071BC" d="M204.878,162.433c-7.489,5.134-14.819,8.8-21.063,11.5c0.207,0.801,0.489,1.562,0.84,2.288
			c0.35,0.721,0.768,1.395,1.241,2.03c6.347-2.737,13.787-6.456,21.491-11.72c-0.266-0.727-0.601-1.413-0.996-2.066
			C205.952,163.734,205.449,163.056,204.878,162.433z"/>
		<path fill="#0071BC" d="M229.266,98.268c-5.138-6.607-11.984-11.947-18.73-16.122c-51.638-29.296-107.022-22.122-106.192-23.083
			c0.039,0.112-13.193-0.06-33.11,4.221c-9.912,2.204-21.531,5.663-33.157,11.958c-11.082,6.057-24.59,16.157-25.918,32.484
			c-0.15,17.24,15.971,26.922,28.496,32.25c13.433,5.577,27.352,8.103,40.1,9.038c25.63,2.287,46.731-3.407,56.296-8.062
			c8.837-4.077,16.731-9.82,19.883-18.336c3.571-8.955-2.861-17.539-8.792-21.2c-5.995-3.58-12.267-5.905-18.864-7.352
			c-0.005,0.325-0.028,0.647-0.047,0.968c-0.026,0.409-0.063,0.813-0.116,1.213c6.139,1.916,11.813,4.512,16.993,8.024
			c5.263,4.064,9.488,10.178,6.656,16.855c-2.524,6.481-9.405,11.737-17.704,15.49c-8.888,4.305-29.044,9.828-53.943,7.603
			c-12.359-0.897-25.846-3.375-38.59-8.672c-12.182-4.988-26.068-14.451-25.567-27.596c0.888-13.159,12.747-22.8,23.424-28.504
			C51.4,73.471,62.658,70.09,72.275,67.953c19.352-4.166,32.303-4.012,32.259-4.12c-1.045,0.846,53.945-5.841,103.462,22.391
			c6.15,3.774,12.157,8.52,16.735,14.098c0.677-0.477,1.397-0.891,2.161-1.238C227.646,98.74,228.438,98.467,229.266,98.268z"/>
		<path fill="#0071BC" d="M237.345,116.484c-0.996-6.914-3.996-12.965-8.079-18.217c-0.827,0.2-1.619,0.473-2.373,0.816
			c-0.764,0.347-1.484,0.761-2.161,1.238c4.072,4.97,7.016,10.598,7.853,16.821c0.348,2.507,0.363,4.986,0.109,7.413
			c0.86-0.017,1.707-0.111,2.517-0.285c0.817-0.175,1.608-0.421,2.361-0.735C237.715,121.233,237.67,118.884,237.345,116.484z"/>
		<path fill="#0071BC" d="M105.571,92.158c8.554,0,16.603,1.045,23.658,2.875c0.019-0.321,0.042-0.644,0.047-0.968
			C121.838,92.432,113.982,91.92,105.571,92.158z"/>
		<path fill="#0071BC" d="M105.571,92.158c8.533,0.551,16.358,1.847,23.542,4.088c0.053-0.4,0.09-0.804,0.116-1.213
			C122.173,93.203,114.125,92.158,105.571,92.158z"/>
	</g>
</g>
<g>
	<circle fill="#FFFFFF" stroke="#0071BC" stroke-width="4" cx="84.644" cy="44.34" r="8.262"/>
	<path fill="#FFFFFF" stroke="#0071BC" stroke-width="4" d="M69.316,70.037v-8.38c0-4.118,3.337-7.454,7.454-7.454h16.026
		c4.116,0,7.453,3.336,7.453,7.454v8.38H69.316z"/>
	<line fill="#FFFFFF" stroke="#0071BC" stroke-width="4" x1="76.289" y1="69.881" x2="76.289" y2="62.653"/>
	<line fill="#FFFFFF" stroke="#0071BC" stroke-width="4" x1="92.937" y1="69.881" x2="92.937" y2="62.653"/>
</g>
<g>
	<circle fill="#FFFFFF" stroke="#0071BC" stroke-width="4" cx="19.247" cy="105.082" r="8.262"/>
	<path fill="#FFFFFF" stroke="#0071BC" stroke-width="4" d="M3.919,130.778v-8.38c0-4.118,3.336-7.455,7.454-7.455h16.026
		c4.116,0,7.454,3.337,7.454,7.455v8.38H3.919z"/>
	<line fill="#FFFFFF" stroke="#0071BC" stroke-width="4" x1="10.892" y1="130.623" x2="10.892" y2="123.395"/>
	<line fill="#FFFFFF" stroke="#0071BC" stroke-width="4" x1="27.54" y1="130.623" x2="27.54" y2="123.395"/>
</g>
<g>
	<circle fill="#FFFFFF" stroke="#0071BC" stroke-width="4" cx="116.512" cy="102.346" r="8.262"/>
	<path fill="#FFFFFF" stroke="#0071BC" stroke-width="4" d="M101.184,128.043v-8.38c0-4.118,3.336-7.454,7.454-7.454h16.026
		c4.116,0,7.454,3.336,7.454,7.454v8.38H101.184z"/>
	<line fill="#FFFFFF" stroke="#0071BC" stroke-width="4" x1="108.156" y1="127.888" x2="108.156" y2="120.659"/>
	<line fill="#FFFFFF" stroke="#0071BC" stroke-width="4" x1="124.806" y1="127.888" x2="124.806" y2="120.659"/>
</g>
<g>
	<circle fill="#FFFFFF" stroke="#0071BC" stroke-width="4" cx="78.225" cy="176.757" r="8.262"/>
	<path fill="#FFFFFF" stroke="#0071BC" stroke-width="4" d="M62.897,202.454v-8.381c0-4.118,3.336-7.454,7.453-7.454h16.026
		c4.117,0,7.454,3.336,7.454,7.454v8.381H62.897z"/>
	<line fill="#FFFFFF" stroke="#0071BC" stroke-width="4" x1="69.87" y1="202.298" x2="69.87" y2="195.069"/>
	<line fill="#FFFFFF" stroke="#0071BC" stroke-width="4" x1="86.519" y1="202.298" x2="86.519" y2="195.069"/>
</g>
<g>
	<circle fill="#FFFFFF" stroke="#0071BC" stroke-width="4" cx="170.509" cy="163.517" r="8.263"/>
	<path fill="#FFFFFF" stroke="#0071BC" stroke-width="4" d="M155.181,189.214v-8.381c0-4.117,3.336-7.454,7.452-7.454h16.028
		c4.116,0,7.453,3.337,7.453,7.454v8.381H155.181z"/>
	<line fill="#FFFFFF" stroke="#0071BC" stroke-width="4" x1="162.152" y1="189.059" x2="162.152" y2="181.83"/>
	<line fill="#FFFFFF" stroke="#0071BC" stroke-width="4" x1="178.802" y1="189.059" x2="178.802" y2="181.83"/>
</g>
<g>
	<circle fill="#FFFFFF" stroke="#0071BC" stroke-width="4" cx="231.415" cy="119.376" r="8.263"/>
	<path fill="#FFFFFF" stroke="#0071BC" stroke-width="4" d="M216.087,145.073v-8.38c0-4.118,3.336-7.455,7.453-7.455h16.025
		c4.118,0,7.455,3.337,7.455,7.455v8.38H216.087z"/>
	<line fill="#FFFFFF" stroke="#0071BC" stroke-width="4" x1="223.059" y1="144.918" x2="223.059" y2="137.69"/>
	<line fill="#FFFFFF" stroke="#0071BC" stroke-width="4" x1="239.709" y1="144.918" x2="239.709" y2="137.69"/>
</g>
<g>
	<circle fill="#FFFFFF" stroke="#0071BC" stroke-width="4" cx="181.189" cy="55.116" r="8.263"/>
	<path fill="#FFFFFF" stroke="#0071BC" stroke-width="4" d="M165.861,80.813v-8.38c0-4.118,3.337-7.454,7.454-7.454h16.025
		c4.117,0,7.454,3.336,7.454,7.454v8.38H165.861z"/>
	<line fill="#FFFFFF" stroke="#0071BC" stroke-width="4" x1="172.834" y1="80.657" x2="172.834" y2="73.429"/>
	<line fill="#FFFFFF" stroke="#0071BC" stroke-width="4" x1="189.482" y1="80.657" x2="189.482" y2="73.429"/>
</g>
</svg>
