<?xml version="1.0" encoding="utf-8"?>
<!-- Generator: Adobe Illustrator 13.0.0, SVG Export Plug-In . SVG Version: 6.00 Build 14948)  -->
<!DOCTYPE svg PUBLIC "-//W3C//DTD SVG 1.1//EN" "http://www.w3.org/Graphics/SVG/1.1/DTD/svg11.dtd">
<svg version="1.1" id="Calque_1" xmlns="http://www.w3.org/2000/svg" xmlns:xlink="http://www.w3.org/1999/xlink" x="0px" y="0px"
	 width="300px" height="200px" viewBox="0 0 300 200" enable-background="new 0 0 300 200" xml:space="preserve">
<g>
	<path fill="#0088D3" d="M134.432,30.895c1.088,0,2.179,0,3.269,0c1.331,1.572,4.828,0.979,7.622,1.089
		c-0.697,2.149,1.585,1.32,1.633,2.722c11.129-1.364,21.653,0.252,27.229,5.993c8.719-2.12,14.039,0.242,18.513,4.901
		c5.903-1.237,11.297,1.914,17.974,1.632c-0.625,3.345,3.555,1.889,4.898,3.269c3.65,3.063,9.484,3.946,15.789,4.355
		c0.729,1.45,2.533,1.824,2.727,3.811c1.717,0.612,1.236,0.051,3.268,0c0.896,3.063,2.338,5.445,3.271,7.081
		c0,0.725,0,1.455,0,2.178c-0.184,0-0.363,0-0.549,0c-0.889,1.838-1.194,4.248-2.723,5.448c-5.125-3.169-10.547,2.167-16.881,0.54
		c-0.988,1.959,1.562,3.073,0.545,3.27c-7.785,4.611-13.547-1.36-21.24-0.544c-3.348-0.826-6.771-1.58-9.258-3.266
		c-8.572,1-18.289-2.458-25.045,1.629c-6.346-2.134-13.432,0.462-19.062,2.179c-0.456,1.361-4.257-0.627-3.813,1.631
		c-0.855-0.051-1.889,0.077-1.633-1.087c-2.172,2.91-7.967,2.199-10.892,4.358c-2.362-2.781-8.181-2.377-11.437-1.635
		c-1.254,1.287-2.554,2.528-4.9,2.723c-0.935,0.697-0.675,2.593-2.179,2.721c0.413,8.474-7.541,13.1-16.881,13.615
		c-2.298,3.512-5.157,6.461-7.623,9.803c-0.546,0-1.092,0-1.633,0c-5.05-2.209-8.482-6.043-10.348-11.437
		c-5.006-0.811-9.332,0.073-14.157,1.634c-1.491,0.496,0.967,1.905-0.545,2.721c-6.268,3.355-6.738,12.506-11.435,17.435
		c-0.673,1.758,1.761,0.414,1.089,2.177c-1.684-0.055-1.623,1.645-1.636,3.27c-1.417,2.57-3.324,4.662-3.265,8.709
		c-5.338,1.746-3.8,10.361-9.805,11.438c-1.677,8.412-0.348,21.689-11.433,25.596c0.426-11.602-0.724-21.479,4.356-29.406
		c-1.161-1.743-2.037-3.773-1.632-7.074c10.091-11.436,7.687-31.434,20.146-41.932c3.8,0.712,5.109-1.065,7.08-2.178
		c-1.523-4.788,3.458-6.559,2.723-11.438c5.577-4.949,10.299-10.754,14.158-17.423c6.112-1.003,10.01-3.133,15.792-0.542
		c4.691-4.025,10.764-6.659,16.882-9.26c-1.113-2.022,0.191-3.421,0.545-5.445c1.871,0.24,3.051-0.214,4.355-0.544
		c0.905-5.449,5.894-6.814,8.168-10.893c5.037,0.231,7.071,3.46,13.614,2.181C131,34.359,134.283,34.194,134.432,30.895z"/>
	<path fill="#9FB93A" d="M121.91,116.936c0.542,0,1.088,0,1.631,0c0,0.729,0,1.451,0,2.176
		C121.723,119.661,121.756,118.354,121.91,116.936z"/>
	<path fill="#9FB93A" d="M124.086,120.201c-0.475,0.797-0.433,2.109-2.176,1.633c0-0.73,0-1.456,0-2.175
		C123.048,119.424,123.349,120.029,124.086,120.201z"/>
	<path fill="#FBC13A" d="M175.818,164.852c1.25,1.111,0.197,4.527,0.543,6.534C175.111,170.281,176.166,166.868,175.818,164.852z"/>
	<path fill="#FBC13A" d="M205.227,165.943c1.338-1.387,2.838-2.607,3.814-4.354c0.463-0.104,0.51,0.212,0.545,0.54
		C207.891,163.163,207.479,165.479,205.227,165.943z"/>
	<path fill="#F7931E" d="M146.414,77.181c-1.071,0.409,12.713-4.312,19.059-2.179c6.76-4.089,16.479-0.63,25.049-1.629
		c2.487,1.686,5.904,2.439,9.256,3.266c-0.016,0.53-0.659,0.422-1.088,0.544c0.283,7.909-1.832,13.418-7.08,15.792
		c0,0.725,0,1.454,0,2.178c-1.983,0.554-3.43,1.653-4.896,2.723c-4.146-4.025-11.979,1.096-14.699,3.813
		c-6.824-2.771-21.279-2.256-25.595,3.812c-0.771,1.039-1.684,1.946-2.727,2.724c-1.088,0-2.175,0-3.266,0
		c-9.497-0.851-17.811-2.883-21.238-9.806c2.187-2.712,4.608-5.19,4.356-10.348c-2.695,0.03-4.802,0.645-7.08,1.09
		c-0.097-3.728,1.263-5.998,2.179-8.712c3.256-0.742,9.074-1.146,11.437,1.635c2.925-2.159,8.719-1.448,10.892-4.358
		c-0.255,1.165,0.964,1.097,1.633,1.088"/>
	<path fill="#9FB93A" d="M147.503,85.349c-0.183,0-0.364,0-0.547,0"/>
	<path fill="#D8D710" d="M170.373,129.459"/>
	<path fill="#39B54A" d="M76.71,121.838c2.667-1.986-1.075-3.967-0.546-7.083c5.563,0.662,6.558-3.245,10.348-4.353
		c-0.134-0.596-1.082-0.365-1.088-1.092c0.542,0,1.088,0,1.633,0c2.467-3.346,5.326-6.291,7.624-9.807
		c9.34-0.515,17.293-5.142,16.881-13.614c1.503-0.128,1.244-2.026,2.179-2.722c2.346-0.194,3.646-1.435,4.9-2.723
		c-0.916,2.714-2.274,4.984-2.179,8.712c2.278-0.445,4.385-1.06,7.08-1.091c0.253,5.158-2.167,7.636-4.356,10.348
		c3.427,6.924,11.741,8.954,21.238,9.807c-0.244,2.478-3.099,2.348-3.266,4.898c0.079,1.006,1.842,0.335,2.176,1.089
		c1.146,8.222,0.384,22.767,0.542,35.938c2.72,2,6.291,3.146,9.804,4.354c0,3.085,0,6.177,0,9.256
		c-1.342,4.291-3.369,7.891-7.08,9.805c-1.518-1.933-5.114-1.787-5.989-4.354c2.061-6.229-1.858-10.229-3.267-14.705
		c-2.16-0.199-5.218,0.501-6.536-0.541c-1.007-1.172-0.366-3.992-0.544-5.995c-2.542,0-5.081,0-7.625,0
		c0.713-6.699-6.358-5.615-4.354-13.611c-1.814-0.552-2.283-2.438-5.445-1.636c-0.84,1.888-0.483,4.97-0.546,7.623
		c-1.485-0.396-1.094,1.086-2.177,1.095c-1.066-10.006-9.354-12.797-14.158-19.062c-0.632,0.46-1.458,0.723-2.724,0.546
		c-0.992,0.819-1.281,2.353-2.176,3.271c-1.73-1.898-4.885-2.381-5.444-5.442c-1.687,0.673-2.258,2.46-2.725,4.354
		c-1.891-2.104-4.7-1.139-7.621-1.094"/>
	<path fill="#FBB03B" d="M163.293,129.459c0,0.727,0,1.45,0,2.174c2.723,0,5.445,0,8.169,0c1.997,3.274,2.613,7.918,4.356,11.441
		c5.629,0,11.255,0,16.88,0c2.741,3.25,7.038,4.937,7.624,10.343c1.357,0.46,2.92,0.713,4.904,0.549
		c1.92,1.89,3.035,4.584,3.812,7.624c-0.978,1.746-2.479,2.971-3.812,4.352c-2.297,0.433-1.062,4.394-2.184,5.996
		c-7.146,2.651-11.218,8.379-22.863,6.53c0.684-4.312-2.775-4.491-3.816-7.079c-0.346-2.01,0.705-5.424-0.545-6.535
		c0-0.178,0-0.359,0-0.545c-2.371-6.341-14.293-3.131-20.691-5.44c-1.854,1.593-2.82,4.073-5.445,4.896c0-3.088,0-6.172,0-9.257
		c-3.513-1.206-7.083-2.356-9.803-4.354c-0.16-13.178,0.603-27.723-0.543-35.938c-0.335-0.751-2.098-0.083-2.177-1.089
		c0.167-2.558,3.022-2.425,3.267-4.899c1.09,0,2.177,0,3.266,0c1.043-0.773,1.953-1.686,2.726-2.724
		c4.146,4.929,8.684,9.467,13.613,13.61c-1.653,0.562-1.653,5.971,0,6.535"/>
	<path fill="#9FB93A" d="M66.365,111.486c-0.169,1.646-1.686,1.947-1.092,4.356C62.301,114.98,65.668,112.193,66.365,111.486z"/>
	<path fill="#F7931E" d="M81.612,120.747c0.56,3.063,3.715,3.544,5.444,5.444c0.896-0.92,1.184-2.446,2.176-3.271
		c1.266,0.176,2.093-0.086,2.724-0.544c4.805,6.269,13.093,9.056,14.158,19.062c-1.814,0-3.63,0-5.445,0
		c-0.541,2.906,0.474,7.369-3.811,6.533c-1.687-0.132,0.85-4.479-1.635-3.812c-6.793,1.562-9.453,7.247-16.337,8.715
		c-2.419-0.849-1.433-5.101-1.632-8.169c-1.667-2.323-6.959-1.03-9.803-2.178c-2.117-0.243-0.192-4.526-1.634-5.444
		c-3.371,2.253-4.493,6.756-9.257,7.622c-3.099-2.165-4.629-5.896-6.535-9.256c2.041-2.715,2.732-9.729-1.635-10.35
		c0.013-1.627-0.048-3.322,1.635-3.27c0.672-1.766-1.76-0.417-1.089-2.178c4.697-4.928,5.167-14.074,11.435-17.432
		c1.513-0.813-0.946-2.227,0.545-2.723c4.825-1.561,9.151-2.444,14.157-1.633c1.867,5.392,5.298,9.229,10.348,11.438
		c0.004,0.723,0.953,0.5,1.088,1.092c-3.79,1.108-4.783,5.021-10.348,4.354"/>
	<path fill="#8CC63F" d="M160.027,125.646c-1.653-0.565-1.653-5.973,0-6.537c-4.932-4.146-9.465-8.688-13.613-13.61
		c4.314-6.069,18.77-6.583,25.594-3.812c2.723-2.717,10.557-7.838,14.7-3.814c1.472-1.07,2.913-2.169,4.899-2.723
		c2.631,12.618,15.912,14.581,21.787,23.959c2.892-0.354,4.396,0.684,5.441,2.18c0.115,1.251-1.064,5.301-0.546,8.714
		c-2.185,2.172-5.457,3.259-4.896,8.169c-1.281,0.534-2.68,0.955-4.356,1.09c1.03,7.203-3.228,9.118-3.812,14.704
		c-1.984,0.17-3.547-0.089-4.904-0.547c-0.586-5.407-4.885-7.094-7.625-10.347c-5.622,0-11.25,0-16.881,0
		c-1.744-3.521-2.357-8.166-4.354-11.44c-2.724,0-5.448,0-8.171,0c0-0.724,0-1.448,0-2.175 M167.648,129.459
		c0.908,0,1.814,0,2.725,0 M188.344,125.646c-0.908,0-1.816,0-2.725,0"/>
</g>
<g>
	<g>
		<path fill="#0071BC" d="M275.495,106.104c-1.277,12.154-8.457,23.201-16.495,31.182c-5.209,5.05-10.605,9.334-15.939,12.984
			c0.666,0.729,1.254,1.521,1.769,2.369c0.462,0.762,0.853,1.562,1.157,2.408c5.646-3.857,11.402-8.413,17.021-13.843
			c8.883-8.851,17.264-21.624,18.174-36.291c-0.875,0.366-1.799,0.653-2.748,0.856S276.499,106.083,275.495,106.104z"/>
		<path fill="#0071BC" d="M145.771,185.779c-0.127-0.605-0.18-1.238-0.194-1.887c-14.633,2.299-29.042,3.573-45.845,4.83
			c16.932,0.36,31.599,0.354,46.618-1.07C146.104,187.051,145.904,186.43,145.771,185.779z"/>
		<path fill="#0071BC" d="M219.48,166.346c-0.412-0.848-0.738-1.734-0.979-2.666c-5.883,2.545-10.95,4.363-14.58,5.725
			c-14.358,4.715-26.754,8.119-38.366,10.703c0.28,0.765,0.463,1.576,0.555,2.408c0.052,0.396,0.123,0.773,0.123,1.178
			c0,0.423-0.078,0.817-0.129,1.228c12.002-2.171,24.828-5.417,39.676-10.271c3.771-1.422,9.025-3.291,15.146-5.936
			C220.375,167.973,219.889,167.188,219.48,166.346z"/>
		<path fill="#0071BC" d="M166.109,182.516c-0.092-0.836-0.273-1.646-0.555-2.408c-6.854,1.528-13.447,2.769-19.979,3.785
			c0.014,0.648,0.066,1.284,0.193,1.892c0.133,0.646,0.332,1.271,0.578,1.868c6.442-0.611,12.97-1.502,19.751-2.731
			c0.051-0.405,0.127-0.803,0.127-1.228C166.232,183.289,166.158,182.907,166.109,182.516z"/>
		<path fill="#0071BC" d="M243.062,150.27c-8.733,5.984-17.28,10.26-24.562,13.41c0.24,0.932,0.57,1.821,0.979,2.666
			c0.412,0.842,0.897,1.629,1.449,2.368c7.401-3.192,16.073-7.528,25.057-13.667c-0.311-0.848-0.697-1.646-1.158-2.408
			C244.314,151.786,243.729,150.995,243.062,150.27z"/>
		<path fill="#0071BC" d="M271.498,75.451c-5.99-7.703-13.971-13.931-21.837-18.798c-60.212-34.16-124.792-25.795-123.824-26.916
			c0.045,0.13-15.384-0.07-38.607,4.922c-11.558,2.569-25.105,6.603-38.661,13.943c-12.923,7.063-28.673,18.839-30.221,37.877
			c-0.176,20.102,18.622,31.392,33.227,37.605c15.663,6.5,31.893,9.447,46.757,10.538c29.885,2.664,54.49-3.974,65.643-9.401
			c10.31-4.755,19.51-11.451,23.187-21.381c4.165-10.442-3.331-20.45-10.249-24.719c-6.992-4.175-14.309-6.886-21.997-8.573
			c-0.005,0.379-0.03,0.754-0.06,1.129c-0.022,0.476-0.067,0.948-0.131,1.415c7.156,2.234,13.772,5.261,19.812,9.355
			c6.143,4.739,11.062,11.868,7.762,19.655c-2.938,7.56-10.965,13.688-20.645,18.062c-10.361,5.021-33.861,11.456-62.896,8.863
			c-14.411-1.045-30.138-3.938-44.998-10.11c-14.205-5.817-30.397-16.853-29.813-32.179c1.036-15.343,14.864-26.586,27.313-33.237
			c12.844-6.964,25.972-10.907,37.185-13.398c22.565-4.858,37.667-4.679,37.615-4.804c-1.218,0.987,62.899-6.811,120.64,26.108
			c7.17,4.4,14.172,9.935,19.512,16.439c0.79-0.556,1.627-1.039,2.521-1.444C269.609,76.001,270.532,75.683,271.498,75.451z"/>
		<path fill="#0071BC" d="M280.919,96.691c-1.161-8.062-4.659-15.117-9.421-21.241c-0.964,0.233-1.889,0.552-2.768,0.951
			c-0.894,0.405-1.729,0.888-2.521,1.444c4.748,5.795,8.186,12.357,9.158,19.614c0.406,2.923,0.423,5.812,0.124,8.645
			c1.004-0.021,1.987-0.131,2.938-0.334c0.946-0.203,1.869-0.49,2.752-0.854C281.35,102.229,281.298,99.489,280.919,96.691z"/>
		<path fill="#0071BC" d="M127.267,68.327c9.975,0,19.36,1.218,27.584,3.353c0.022-0.375,0.051-0.751,0.056-1.129
			C146.234,68.646,137.075,68.049,127.267,68.327z"/>
		<path fill="#0071BC" d="M127.267,68.327c9.95,0.642,19.075,2.153,27.451,4.767c0.062-0.467,0.105-0.938,0.136-1.414
			C146.626,69.545,137.242,68.327,127.267,68.327z"/>
	</g>
</g>
<g>
	<circle fill="#FFFFFF" stroke="#0071BC" stroke-width="4" cx="102.866" cy="12.57" r="9.634"/>
	<path fill="#FFFFFF" stroke="#0071BC" stroke-width="4" d="M84.994,42.533v-9.771c0-4.802,3.891-8.691,8.691-8.691h18.686
		c4.8,0,8.691,3.89,8.691,8.691v9.771H84.994L84.994,42.533z"/>
	<line fill="none" stroke="#0071BC" stroke-width="4" x1="93.124" y1="42.351" x2="93.124" y2="33.923"/>
	<line fill="none" stroke="#0071BC" stroke-width="4" x1="112.536" y1="42.351" x2="112.536" y2="33.923"/>
</g>
<g>
	<circle fill="#FFFFFF" stroke="#0071BC" stroke-width="4" cx="26.612" cy="83.396" r="9.634"/>
	<path fill="#FFFFFF" stroke="#0071BC" stroke-width="4" d="M8.739,113.355v-9.771c0-4.802,3.889-8.693,8.691-8.693h18.687
		c4.799,0,8.692,3.892,8.692,8.693v9.771H8.739z"/>
	<line fill="none" stroke="#0071BC" stroke-width="4" x1="16.87" y1="113.177" x2="16.87" y2="104.75"/>
	<line fill="none" stroke="#0071BC" stroke-width="4" x1="36.282" y1="113.177" x2="36.282" y2="104.75"/>
</g>
<g>
	<circle fill="#FFFFFF" stroke="#0071BC" stroke-width="4" cx="140.025" cy="80.206" r="9.634"/>
	<path fill="#FFFFFF" stroke="#0071BC" stroke-width="4" d="M122.152,110.17v-9.771c0-4.803,3.89-8.692,8.691-8.692h18.687
		c4.799,0,8.691,3.89,8.691,8.692v9.771H122.152z"/>
	<line fill="none" stroke="#0071BC" stroke-width="4" x1="130.281" y1="109.989" x2="130.281" y2="101.559"/>
	<line fill="none" stroke="#0071BC" stroke-width="4" x1="149.695" y1="109.989" x2="149.695" y2="101.559"/>
</g>
<g>
	<circle fill="#FFFFFF" stroke="#0071BC" stroke-width="4" cx="95.382" cy="166.971" r="9.633"/>
	<path fill="#FFFFFF" stroke="#0071BC" stroke-width="4" d="M77.508,196.936v-9.771c0-4.804,3.89-8.69,8.691-8.69h18.687
		c4.8,0,8.69,3.892,8.69,8.69v9.771H77.508z"/>
	<line fill="none" stroke="#0071BC" stroke-width="4" x1="85.639" y1="196.752" x2="85.639" y2="188.32"/>
	<line fill="none" stroke="#0071BC" stroke-width="4" x1="105.053" y1="196.752" x2="105.053" y2="188.32"/>
</g>
<g>
	<circle fill="#FFFFFF" stroke="#0071BC" stroke-width="4" cx="202.986" cy="151.532" r="9.635"/>
	<path fill="#FFFFFF" stroke="#0071BC" stroke-width="4" d="M185.113,181.495v-9.772c0-4.8,3.891-8.688,8.688-8.688h18.689
		c4.799,0,8.688,3.892,8.688,8.688v9.772H185.113z"/>
	<line fill="none" stroke="#0071BC" stroke-width="4" x1="193.242" y1="181.312" x2="193.242" y2="172.886"/>
	<line fill="none" stroke="#0071BC" stroke-width="4" x1="212.656" y1="181.312" x2="212.656" y2="172.886"/>
</g>
<g>
	<circle fill="#FFFFFF" stroke="#0071BC" stroke-width="4" cx="274.004" cy="100.063" r="9.635"/>
	<path fill="#FFFFFF" stroke="#0071BC" stroke-width="4" d="M256.132,130.025v-9.771c0-4.802,3.89-8.691,8.69-8.691h18.685
		c4.804,0,8.693,3.894,8.693,8.691v9.771H256.132z"/>
	<line fill="none" stroke="#0071BC" stroke-width="4" x1="264.262" y1="129.846" x2="264.262" y2="121.418"/>
	<line fill="none" stroke="#0071BC" stroke-width="4" x1="283.676" y1="129.846" x2="283.676" y2="121.418"/>
</g>
<g>
	<circle fill="#FFFFFF" stroke="#0071BC" stroke-width="4" cx="215.439" cy="25.135" r="9.635"/>
	<path fill="#FFFFFF" stroke="#0071BC" stroke-width="4" d="M197.566,55.098v-9.771c0-4.802,3.892-8.692,8.688-8.692h18.688
		c4.802,0,8.688,3.89,8.688,8.692v9.771H197.566z"/>
	<line fill="none" stroke="#0071BC" stroke-width="4" x1="205.697" y1="54.917" x2="205.697" y2="46.489"/>
	<line fill="none" stroke="#0071BC" stroke-width="4" x1="225.109" y1="54.917" x2="225.109" y2="46.489"/>
</g>
</svg>
