<?xml version="1.0" encoding="utf-8"?>
<!-- Generator: Adobe Illustrator 13.0.0, SVG Export Plug-In . SVG Version: 6.00 Build 14948)  -->
<!DOCTYPE svg PUBLIC "-//W3C//DTD SVG 1.1//EN" "http://www.w3.org/Graphics/SVG/1.1/DTD/svg11.dtd">
<svg version="1.1" id="Calque_1" xmlns="http://www.w3.org/2000/svg" xmlns:xlink="http://www.w3.org/1999/xlink" x="0px" y="0px"
	 width="250px" height="250px" viewBox="0 0 250 250" enable-background="new 0 0 250 250" xml:space="preserve">
<g>
	<g>
		<path fill="#FFFFFF" stroke="#0071BC" stroke-width="6" d="M173.218,68.51c0,30.802-24.965,55.765-55.749,55.765
			c-30.804,0-55.767-24.963-55.767-55.765c0-30.781,24.963-55.747,55.767-55.747C148.253,12.764,173.218,37.729,173.218,68.51z"/>
		<path fill="#FFFFFF" stroke="#0071BC" stroke-width="6" d="M16.947,239.009v-56.561c0-27.776,22.508-50.293,50.295-50.293
			L108.5,162.5l66.886-30.345c27.777,0,50.293,22.517,50.293,50.293v56.561H16.947z"/>
		<line fill="#FFFFFF" stroke="#0071BC" stroke-width="6" x1="63.992" y1="237.961" x2="63.992" y2="189.184"/>
		<line fill="#FFFFFF" stroke="#0071BC" stroke-width="6" x1="176.338" y1="237.961" x2="176.338" y2="189.184"/>
	</g>
	<circle fill="#F7931E" cx="184.049" cy="104.368" r="38.443"/>
	<g>
		<path fill="#FFFFFF" d="M190.292,112.802h-13.928v-2.365c0-3.128,0.351-5.437,1.051-6.926c0.701-1.489,1.978-2.646,3.83-3.473
			l2.553-1.126c1.927-0.851,2.891-2.052,2.891-3.604c0-0.901-0.313-1.665-0.938-2.291c-0.626-0.625-1.39-0.938-2.29-0.938
			c-2.453,0-3.68,1.703-3.68,5.106h-12.951c0-4.555,1.051-8.271,3.153-11.15c1.551-2.127,3.566-3.816,6.044-5.068
			c2.478-1.251,5.043-1.877,7.696-1.877c4.705,0,8.665,1.558,11.882,4.674c3.216,3.116,4.824,6.977,4.824,11.582
			c0,5.682-2.303,9.674-6.908,11.976c-1.501,0.751-2.415,1.402-2.74,1.952C190.455,109.824,190.292,111,190.292,112.802z
			 M183.572,114.792c2.452,0,4.562,0.889,6.326,2.666c1.764,1.777,2.646,3.892,2.646,6.345c0,2.453-0.877,4.536-2.628,6.251
			c-1.752,1.714-3.867,2.571-6.345,2.571c-2.578,0-4.699-0.832-6.363-2.496c-1.665-1.665-2.496-3.786-2.496-6.364
			c0-2.502,0.863-4.624,2.59-6.363C179.029,115.662,181.119,114.792,183.572,114.792z"/>
	</g>
	<g>
		<path fill="#F7931E" d="M100.012,222.219l-8.319-18.451c-1.349-2.992-3.114-3.998-5.294-3.015
			c-0.888,0.399-1.515,1.058-1.879,1.973c-0.366,0.915-0.348,1.817,0.052,2.705c0.4,0.888,1.058,1.514,1.974,1.878
			c0.916,0.367,1.81,0.353,2.682-0.041c0.677-0.305,1.243-0.896,1.699-1.771l4.19,9.294c-0.945,0.553-1.673,0.944-2.184,1.175
			c-3.128,1.41-6.357,1.474-9.688,0.188c-3.33-1.285-5.714-3.522-7.151-6.71c-1.478-3.278-1.575-6.564-0.292-9.858
			c1.284-3.293,3.603-5.694,6.957-7.206c1.684-0.76,3.494-1.133,5.427-1.118c1.934,0.016,3.701,0.412,5.302,1.192
			c2.78,1.352,4.947,3.75,6.5,7.193l8.462,18.77L100.012,222.219z"/>
		<path fill="#F7931E" d="M99.143,185.913l8.437-3.804l5.726,12.701c0.577,1.278,1.398,1.676,2.466,1.194
			c1.053-0.474,1.291-1.351,0.714-2.628l-5.726-12.701l8.437-3.805l5.654,12.542c1.315,2.919,1.456,5.818,0.421,8.701
			c-1.035,2.882-2.958,4.958-5.771,6.226c-3.203,1.444-6.308,1.441-9.314-0.009c-2.339-1.135-4.238-3.318-5.696-6.552
			L99.143,185.913z"/>
		<path fill="#F7931E" d="M123.687,162.389c1.143-0.515,2.313-0.559,3.51-0.131c1.198,0.429,2.044,1.192,2.539,2.29
			c0.528,1.173,0.568,2.312,0.118,3.421c-0.451,1.108-1.293,1.94-2.526,2.496c-1.233,0.557-2.414,0.636-3.542,0.24
			c-1.129-0.396-1.958-1.181-2.486-2.354c-0.495-1.098-0.507-2.237-0.035-3.419C121.736,163.752,122.543,162.904,123.687,162.389z
			 M132.408,170.535l10.139,22.49l-8.436,3.804l-10.14-22.49L132.408,170.535z"/>
		<path fill="#F7931E" d="M156.139,159.836l-0.75,16.76l7.941-3.58l3.986,8.843l-21.679,9.773l0.685-16.784l-7.129,3.214
			l-3.966-8.798L156.139,159.836z"/>
		<path fill="#F7931E" d="M179.013,149.523l-0.75,16.76l7.941-3.58l3.986,8.843l-21.679,9.773l0.685-16.784l-7.129,3.214
			l-3.966-8.798L179.013,149.523z"/>
	</g>
</g>
<path fill="none" stroke="#0071BC" stroke-width="5" stroke-linecap="round" d="M96.057,92.735c0,4.95,9.089,8.955,20.321,8.955"/>
<path fill="none" stroke="#0071BC" stroke-width="5" stroke-linecap="round" d="M136.355,92.791c0,4.951-9.089,8.955-20.321,8.955"
	/>
<circle fill="none" stroke="#0A71B4" stroke-width="4" cx="97.482" cy="65.625" r="4.46"/>
<circle fill="none" stroke="#0A71B4" stroke-width="4" cx="134.487" cy="65.625" r="4.46"/>
</svg>
