<?xml version="1.0" encoding="utf-8"?>
<!-- Generator: Adobe Illustrator 13.0.0, SVG Export Plug-In . SVG Version: 6.00 Build 14948)  -->
<!DOCTYPE svg PUBLIC "-//W3C//DTD SVG 1.1//EN" "http://www.w3.org/Graphics/SVG/1.1/DTD/svg11.dtd">
<svg version="1.1" id="Calque_1" xmlns="http://www.w3.org/2000/svg" xmlns:xlink="http://www.w3.org/1999/xlink" x="0px" y="0px"
	 width="800px" height="400px" viewBox="0 0 800 400" enable-background="new 0 0 800 400" xml:space="preserve">
<g>
	<path fill="#FFFFFF" d="M450.099,276.669c0,5.653-4.577,10.229-10.237,10.229c-5.652,0-10.229-4.576-10.229-10.229
		c0-5.647,4.577-10.235,10.229-10.235C445.521,266.434,450.099,271.021,450.099,276.669z"/>
	<g>
		<path fill="#FFFFFF" d="M777.93,181.652c-1.823,17.332-12.061,33.081-23.521,44.456c-7.428,7.201-15.122,13.311-22.729,18.524
			c0.952,1.034,1.787,2.157,2.515,3.372c0.658,1.09,1.216,2.229,1.656,3.438c8.046-5.5,16.257-11.99,24.267-19.736
			c12.668-12.62,24.617-30.837,25.922-51.749c-1.253,0.524-2.569,0.934-3.93,1.223C780.762,181.468,779.355,181.623,777.93,181.652z
			"/>
		<path fill="#FFFFFF" d="M592.955,295.266c-0.177-0.867-0.251-1.771-0.273-2.691c-20.871,3.271-70.051,3.41-94.183,1.197
			c24.937,4.824,73.864,6.193,95.283,4.158C593.431,297.08,593.145,296.188,592.955,295.266z"/>
		<path fill="#FFFFFF" d="M698.058,267.552c-0.586-1.208-1.054-2.476-1.396-3.803c-8.385,3.625-15.608,6.224-20.789,8.165
			c-20.471,6.717-38.146,11.575-54.71,15.255c0.404,1.09,0.663,2.243,0.796,3.437c0.071,0.56,0.176,1.107,0.176,1.684
			c0,0.598-0.11,1.163-0.184,1.745c17.109-3.104,35.4-7.731,56.572-14.644c5.372-2.027,12.866-4.695,21.601-8.461
			C699.332,269.872,698.639,268.746,698.058,267.552z"/>
		<path fill="#FFFFFF" d="M621.957,290.605c-0.133-1.193-0.393-2.348-0.796-3.438c-9.771,2.176-19.169,3.943-28.479,5.404
			c0.022,0.92,0.098,1.824,0.273,2.691c0.188,0.922,0.476,1.814,0.827,2.663c9.188-0.879,18.495-2.142,28.167-3.896
			c0.072-0.582,0.184-1.148,0.184-1.745C622.133,291.713,622.028,291.164,621.957,290.605z"/>
		<path fill="#FFFFFF" d="M731.681,244.632c-12.448,8.531-24.64,14.621-35.021,19.117c0.344,1.327,0.812,2.595,1.396,3.803
			c0.581,1.194,1.274,2.32,2.064,3.378c10.551-4.553,22.92-10.734,35.729-19.488c-0.44-1.209-0.998-2.348-1.656-3.438
			C733.468,246.789,732.633,245.666,731.681,244.632z"/>
		<path fill="#FFFFFF" d="M772.229,137.943c-8.543-10.984-19.925-19.862-31.145-26.804c-85.851-48.707-177.938-36.78-176.56-38.377
			c0.066,0.188-21.932-0.099-55.043,7.018c-16.483,3.666-35.802,9.414-55.13,19.882c-18.425,10.069-40.885,26.862-43.094,54.009
			c-0.249,28.662,26.553,44.76,47.374,53.618c22.339,9.273,45.479,13.472,66.675,15.023c42.611,3.809,77.696-5.658,93.598-13.4
			c14.69-6.778,27.818-16.327,33.058-30.485c5.938-14.888-4.752-29.162-14.618-35.249c-9.968-5.951-20.39-9.814-31.363-12.222
			c-0.004,0.541-0.045,1.075-0.074,1.608c-0.044,0.681-0.107,1.354-0.196,2.019c10.207,3.186,19.642,7.5,28.258,13.34
			c8.75,6.758,15.771,16.922,11.067,28.023c-4.203,10.778-15.638,19.516-29.438,25.754c-14.78,7.161-48.293,16.341-89.687,12.642
			c-20.552-1.492-42.972-5.605-64.16-14.417c-20.26-8.293-43.343-24.028-42.513-45.88c1.479-21.88,21.195-37.909,38.95-47.394
			c18.316-9.933,37.032-15.554,53.022-19.106c32.175-6.927,53.709-6.672,53.635-6.852c-1.737,1.404,89.693-9.71,172.021,37.229
			c10.225,6.277,20.21,14.165,27.823,23.437c1.122-0.793,2.322-1.48,3.591-2.057C769.539,138.731,770.854,138.278,772.229,137.943z"
			/>
		<path fill="#FFFFFF" d="M785.661,168.232c-1.656-11.495-6.646-21.556-13.435-30.289c-1.374,0.334-2.688,0.788-3.945,1.359
			c-1.269,0.577-2.469,1.264-3.591,2.057c6.771,8.265,11.658,17.622,13.054,27.966c0.578,4.171,0.603,8.292,0.186,12.327
			c1.427-0.029,2.832-0.184,4.181-0.473c1.359-0.289,2.677-0.699,3.93-1.223C786.275,176.128,786.202,172.223,785.661,168.232z"/>
		<path fill="#FFFFFF" d="M566.565,127.787c14.229,0,27.609,1.738,39.34,4.778c0.03-0.533,0.07-1.067,0.073-1.608
			C593.619,128.242,580.554,127.392,566.565,127.787z"/>
		<path fill="#FFFFFF" d="M566.565,127.787c14.192,0.917,27.201,3.072,39.144,6.797c0.089-0.665,0.152-1.338,0.196-2.019
			C594.176,129.525,580.795,127.787,566.565,127.787z"/>
	</g>
	<path fill="#FFFFFF" d="M597.362,127.125c0,16.076-13.035,29.112-29.113,29.112c-16.075,0-29.11-13.036-29.11-29.112
		c0-16.078,13.035-29.114,29.11-29.114C584.327,98.011,597.362,111.047,597.362,127.125z"/>
	<path fill="#FFFFFF" d="M787.877,136.365c0,12.655-10.259,22.916-22.916,22.916s-22.916-10.261-22.916-22.916
		c0-12.66,10.259-22.919,22.916-22.919S787.877,123.706,787.877,136.365z"/>
	<path fill="#FFFFFF" d="M754.034,247.671c0,10.601-8.6,19.202-19.202,19.202c-10.602,0-19.199-8.602-19.199-19.202
		c0-10.606,8.6-19.202,19.199-19.202C745.436,228.469,754.034,237.062,754.034,247.671z"/>
	<path fill="#FFFFFF" d="M634.53,291.27c0,8.551-6.938,15.481-15.485,15.481c-8.551,0-15.489-6.933-15.489-15.481
		c0-8.556,6.938-15.49,15.489-15.49C627.593,275.779,634.53,282.714,634.53,291.27z"/>
</g>
<g>
	<path fill="#FFFFFF" d="M17.14,72.892h9.427v44.593h22.521v8.38H17.14V72.892z"/>
	<path fill="#FFFFFF" d="M62.479,77.381c0,1.047-0.374,1.908-1.122,2.582c-0.749,0.673-1.571,1.01-2.469,1.01
		s-1.721-0.336-2.469-1.01c-0.748-0.673-1.122-1.534-1.122-2.582c0-1.048,0.374-1.908,1.122-2.581
		c0.749-0.673,1.571-1.01,2.469-1.01s1.721,0.337,2.469,1.01C62.105,75.473,62.479,76.333,62.479,77.381z M61.432,125.864h-5.088
		V90.849h5.088V125.864z"/>
	<path fill="#FFFFFF" d="M97.046,103.202c0-3.02-0.798-5.272-2.394-6.758c-1.597-1.485-3.917-2.229-6.958-2.229
		c-2.095,0-4.04,0.374-5.836,1.123c-1.795,0.748-3.318,1.747-4.564,2.993l-2.843-3.367c1.446-1.446,3.354-2.644,5.724-3.592
		c2.369-0.947,5.05-1.421,8.043-1.421c1.895,0,3.666,0.262,5.312,0.786s3.092,1.31,4.34,2.357c1.246,1.047,2.219,2.37,2.918,3.965
		c0.698,1.597,1.047,3.467,1.047,5.611v15.338c0,1.347,0.049,2.744,0.149,4.19c0.1,1.447,0.249,2.669,0.449,3.666H97.87
		c-0.15-0.848-0.275-1.771-0.375-2.769c-0.101-0.997-0.149-1.97-0.149-2.918h-0.15c-1.597,2.345-3.404,4.029-5.424,5.051
		c-2.02,1.021-4.452,1.534-7.295,1.534c-1.347,0-2.731-0.188-4.152-0.562c-1.422-0.375-2.719-0.988-3.891-1.839
		c-1.173-0.851-2.146-1.952-2.918-3.304c-0.774-1.352-1.16-3.002-1.16-4.955c0-2.703,0.685-4.842,2.058-6.418
		c1.371-1.576,3.204-2.752,5.499-3.528c2.294-0.776,4.925-1.277,7.894-1.502c2.967-0.224,6.047-0.338,9.24-0.338L97.046,103.202
		L97.046,103.202z M95.55,108.356c-2.095,0-4.203,0.087-6.322,0.262c-2.121,0.175-4.04,0.524-5.761,1.047
		c-1.721,0.524-3.131,1.285-4.228,2.282c-1.098,0.999-1.646,2.319-1.646,3.965c0,1.248,0.236,2.295,0.711,3.143
		c0.473,0.849,1.109,1.534,1.908,2.058c0.797,0.523,1.684,0.898,2.656,1.122c0.973,0.225,1.957,0.337,2.955,0.337
		c1.796,0,3.392-0.311,4.789-0.936c1.396-0.623,2.568-1.471,3.517-2.543c0.947-1.072,1.67-2.307,2.17-3.704
		c0.498-1.396,0.748-2.868,0.748-4.415v-2.619L95.55,108.356L95.55,108.356z"/>
	<path fill="#FFFFFF" d="M121.138,77.381c0,1.047-0.374,1.908-1.122,2.582c-0.749,0.673-1.571,1.01-2.469,1.01
		s-1.721-0.336-2.469-1.01c-0.748-0.673-1.122-1.534-1.122-2.582c0-1.048,0.374-1.908,1.122-2.581
		c0.749-0.673,1.571-1.01,2.469-1.01s1.721,0.337,2.469,1.01C120.764,75.473,121.138,76.333,121.138,77.381z M120.091,125.864
		h-5.088V90.849h5.088V125.864z"/>
	<path fill="#FFFFFF" d="M152.263,99.153c-0.748-1.446-1.883-2.63-3.404-3.554c-1.522-0.922-3.254-1.384-5.2-1.384
		c-0.898,0-1.796,0.101-2.694,0.299c-0.897,0.2-1.696,0.524-2.394,0.973c-0.699,0.449-1.26,1.023-1.684,1.721
		c-0.424,0.699-0.636,1.522-0.636,2.469c0,1.646,0.673,2.906,2.02,3.778c1.347,0.874,3.466,1.609,6.36,2.208
		c4.14,0.849,7.194,2.083,9.166,3.704c1.97,1.621,2.955,3.804,2.955,6.546c0,1.996-0.387,3.679-1.16,5.05
		c-0.774,1.373-1.784,2.495-3.03,3.367c-1.247,0.873-2.656,1.496-4.227,1.871c-1.571,0.374-3.155,0.561-4.751,0.561
		c-2.645,0-5.213-0.55-7.707-1.646c-2.495-1.097-4.54-2.817-6.135-5.163l4.04-2.993c0.898,1.547,2.219,2.843,3.966,3.891
		c1.745,1.047,3.666,1.571,5.761,1.571c1.097,0,2.144-0.099,3.143-0.299c0.997-0.199,1.871-0.548,2.619-1.047
		c0.748-0.498,1.347-1.134,1.796-1.908c0.449-0.773,0.673-1.732,0.673-2.881c0-1.845-0.886-3.229-2.656-4.152
		c-1.771-0.922-4.328-1.783-7.669-2.581c-1.047-0.249-2.158-0.562-3.33-0.936s-2.257-0.922-3.255-1.646
		c-0.998-0.722-1.821-1.633-2.469-2.731c-0.649-1.097-0.973-2.469-0.973-4.115c0-1.795,0.348-3.329,1.047-4.601
		c0.698-1.272,1.633-2.319,2.806-3.143c1.171-0.823,2.507-1.433,4.003-1.833c1.497-0.399,3.042-0.599,4.639-0.599
		c2.443,0,4.813,0.549,7.108,1.646c2.294,1.098,4.015,2.645,5.163,4.639L152.263,99.153z"/>
	<path fill="#FFFFFF" d="M201.643,108.356c0,2.645-0.461,5.088-1.384,7.333c-0.923,2.245-2.207,4.19-3.853,5.836
		c-1.646,1.646-3.617,2.931-5.911,3.853c-2.295,0.922-4.814,1.384-7.557,1.384c-2.693,0-5.188-0.462-7.482-1.384
		c-2.295-0.922-4.265-2.207-5.911-3.853s-2.931-3.591-3.853-5.836c-0.924-2.245-1.384-4.688-1.384-7.333
		c0-2.643,0.46-5.088,1.384-7.333c0.922-2.245,2.207-4.19,3.853-5.836s3.616-2.93,5.911-3.853c2.294-0.922,4.789-1.384,7.482-1.384
		c2.743,0,5.262,0.462,7.557,1.384c2.293,0.923,4.265,2.207,5.911,3.853c1.646,1.646,2.93,3.591,3.853,5.836
		C201.182,103.269,201.643,105.713,201.643,108.356z M196.256,108.356c0-1.945-0.312-3.778-0.936-5.5
		c-0.624-1.721-1.509-3.217-2.656-4.489c-1.148-1.272-2.544-2.282-4.19-3.03c-1.646-0.749-3.492-1.123-5.537-1.123
		s-3.879,0.374-5.499,1.123c-1.622,0.748-3.006,1.758-4.152,3.03c-1.148,1.271-2.033,2.768-2.656,4.489
		c-0.625,1.721-0.935,3.554-0.935,5.5s0.311,3.778,0.935,5.499c0.623,1.721,1.508,3.217,2.656,4.489
		c1.146,1.272,2.531,2.271,4.152,2.993c1.62,0.724,3.454,1.084,5.499,1.084s3.891-0.361,5.537-1.084
		c1.646-0.723,3.042-1.721,4.19-2.993c1.146-1.271,2.032-2.768,2.656-4.489C195.944,112.135,196.256,110.302,196.256,108.356z"/>
	<path fill="#FFFFFF" d="M217.13,90.849c0.099,0.948,0.174,1.996,0.225,3.143c0.049,1.148,0.075,2.095,0.075,2.843h0.149
		c0.998-2.044,2.619-3.704,4.863-4.976c2.245-1.271,4.613-1.908,7.108-1.908c4.439,0,7.769,1.322,9.989,3.965
		c2.219,2.645,3.329,6.135,3.329,10.475v21.473h-5.087v-19.378c0-1.845-0.15-3.517-0.449-5.013c-0.299-1.497-0.811-2.78-1.534-3.854
		c-0.724-1.072-1.696-1.908-2.918-2.506c-1.223-0.599-2.757-0.898-4.602-0.898c-1.347,0-2.656,0.275-3.928,0.823
		c-1.272,0.549-2.407,1.384-3.404,2.506c-0.999,1.122-1.796,2.544-2.395,4.265c-0.599,1.721-0.897,3.754-0.897,6.098v17.957h-5.088
		V98.555c0-0.947-0.026-2.17-0.075-3.667c-0.05-1.496-0.125-2.843-0.225-4.04L217.13,90.849L217.13,90.849z"/>
	<path fill="#FFFFFF" d="M33.75,162.676h8.156l22.82,52.973H53.951l-4.938-12.121h-22.97l-4.789,12.121h-10.55L33.75,162.676z
		 M45.721,195.447l-8.155-21.548l-8.305,21.548H45.721z"/>
	<path fill="#FFFFFF" d="M96.074,188.639c-0.849-1.347-2.083-2.457-3.704-3.33c-1.622-0.872-3.38-1.31-5.275-1.31
		c-2.046,0-3.891,0.362-5.537,1.085c-1.646,0.724-3.056,1.721-4.228,2.993s-2.07,2.769-2.693,4.489
		c-0.625,1.721-0.935,3.58-0.935,5.574c0,1.996,0.311,3.842,0.935,5.537c0.623,1.696,1.508,3.181,2.656,4.451
		c1.146,1.272,2.544,2.271,4.19,2.993c1.646,0.725,3.491,1.085,5.537,1.085c2.245,0,4.14-0.424,5.686-1.272
		c1.545-0.848,2.817-1.944,3.816-3.291l3.816,2.844c-1.497,1.846-3.33,3.316-5.5,4.414c-2.169,1.097-4.776,1.646-7.818,1.646
		c-2.843,0-5.413-0.461-7.707-1.384c-2.295-0.923-4.253-2.207-5.874-3.854c-1.622-1.646-2.88-3.592-3.778-5.836
		s-1.347-4.688-1.347-7.333c0-2.643,0.449-5.088,1.347-7.333c0.898-2.245,2.157-4.19,3.778-5.836s3.579-2.93,5.874-3.853
		c2.293-0.922,4.863-1.384,7.707-1.384c2.344,0,4.725,0.512,7.145,1.534c2.419,1.023,4.377,2.532,5.874,4.527L96.074,188.639z"/>
	<path fill="#FFFFFF" d="M124.057,184.897h-9.876v20.426c0,1.298,0.124,2.37,0.374,3.218c0.249,0.85,0.61,1.509,1.085,1.982
		c0.474,0.475,1.035,0.797,1.684,0.973c0.647,0.175,1.347,0.262,2.095,0.262c0.698,0,1.434-0.1,2.208-0.299
		c0.772-0.199,1.508-0.475,2.207-0.823l0.225,4.414c-0.898,0.351-1.833,0.61-2.806,0.786c-0.973,0.174-2.033,0.262-3.18,0.262
		c-0.948,0-1.945-0.125-2.993-0.373c-1.048-0.25-2.02-0.724-2.918-1.423c-0.898-0.698-1.634-1.646-2.207-2.843
		c-0.574-1.197-0.861-2.77-0.861-4.714v-21.848h-7.257v-4.265h7.257v-9.876h5.088v9.876h9.876L124.057,184.897L124.057,184.897z"/>
	<path fill="#FFFFFF" d="M138.197,167.165c0,1.047-0.374,1.908-1.122,2.582c-0.749,0.673-1.571,1.01-2.469,1.01
		s-1.721-0.336-2.469-1.01c-0.748-0.673-1.122-1.534-1.122-2.582s0.374-1.908,1.122-2.581c0.749-0.673,1.571-1.01,2.469-1.01
		s1.721,0.337,2.469,1.01S138.197,166.118,138.197,167.165z M137.149,215.648h-5.088v-35.017h5.088V215.648z"/>
	<path fill="#FFFFFF" d="M185.483,198.141c0,2.645-0.461,5.087-1.384,7.332c-0.923,2.245-2.207,4.19-3.853,5.836
		c-1.646,1.646-3.617,2.932-5.911,3.854c-2.295,0.923-4.814,1.384-7.557,1.384c-2.693,0-5.188-0.461-7.482-1.384
		c-2.295-0.923-4.265-2.207-5.911-3.854c-1.646-1.646-2.931-3.591-3.853-5.836c-0.924-2.244-1.384-4.688-1.384-7.332
		c0-2.643,0.46-5.088,1.384-7.333c0.922-2.245,2.207-4.19,3.853-5.836c1.646-1.646,3.616-2.93,5.911-3.853
		c2.294-0.922,4.789-1.384,7.482-1.384c2.743,0,5.262,0.462,7.557,1.384c2.293,0.923,4.265,2.207,5.911,3.853
		s2.93,3.591,3.853,5.836C185.021,193.053,185.483,195.498,185.483,198.141z M180.096,198.141c0-1.945-0.312-3.778-0.936-5.5
		c-0.624-1.721-1.509-3.217-2.656-4.489c-1.148-1.272-2.544-2.282-4.19-3.03c-1.646-0.749-3.492-1.123-5.537-1.123
		s-3.879,0.374-5.499,1.123c-1.622,0.748-3.006,1.758-4.152,3.03c-1.148,1.271-2.033,2.768-2.656,4.489
		c-0.625,1.721-0.935,3.554-0.935,5.5c0,1.946,0.311,3.778,0.935,5.5c0.623,1.721,1.508,3.217,2.656,4.488
		c1.146,1.271,2.531,2.271,4.152,2.993c1.62,0.724,3.454,1.085,5.499,1.085s3.891-0.361,5.537-1.085s3.042-1.722,4.19-2.993
		c1.146-1.271,2.032-2.77,2.656-4.488C179.784,201.919,180.096,200.086,180.096,198.141z"/>
	<path fill="#FFFFFF" d="M200.97,180.633c0.099,0.948,0.174,1.996,0.225,3.143c0.049,1.148,0.075,2.095,0.075,2.843h0.149
		c0.998-2.044,2.619-3.704,4.863-4.976c2.245-1.271,4.613-1.908,7.108-1.908c4.439,0,7.769,1.322,9.989,3.965
		c2.219,2.645,3.329,6.135,3.329,10.475v21.474h-5.087V196.27c0-1.845-0.15-3.517-0.449-5.013c-0.299-1.497-0.811-2.78-1.534-3.854
		c-0.724-1.072-1.696-1.908-2.918-2.506c-1.223-0.599-2.757-0.898-4.602-0.898c-1.347,0-2.656,0.275-3.928,0.823
		c-1.272,0.549-2.407,1.384-3.404,2.506c-0.999,1.122-1.796,2.544-2.395,4.265c-0.599,1.721-0.897,3.754-0.897,6.098v17.958h-5.088
		v-27.31c0-0.947-0.026-2.17-0.075-3.667c-0.05-1.496-0.125-2.843-0.225-4.04L200.97,180.633L200.97,180.633z"/>
	<path fill="#FFFFFF" d="M258.506,188.938c-0.748-1.446-1.883-2.63-3.404-3.554c-1.522-0.922-3.254-1.384-5.2-1.384
		c-0.898,0-1.796,0.101-2.694,0.299c-0.897,0.2-1.696,0.524-2.394,0.973c-0.699,0.449-1.26,1.023-1.684,1.721
		c-0.424,0.699-0.636,1.522-0.636,2.469c0,1.646,0.673,2.906,2.02,3.778c1.347,0.874,3.466,1.609,6.36,2.208
		c4.14,0.849,7.194,2.083,9.166,3.704c1.97,1.622,2.955,3.804,2.955,6.546c0,1.995-0.387,3.679-1.16,5.051
		c-0.774,1.372-1.784,2.494-3.03,3.366c-1.247,0.873-2.656,1.496-4.227,1.871c-1.571,0.373-3.155,0.561-4.751,0.561
		c-2.645,0-5.213-0.549-7.707-1.646c-2.495-1.096-4.54-2.816-6.135-5.162l4.04-2.992c0.898,1.547,2.219,2.843,3.966,3.891
		c1.745,1.047,3.666,1.571,5.761,1.571c1.097,0,2.144-0.101,3.143-0.3c0.997-0.198,1.871-0.549,2.619-1.047s1.347-1.135,1.796-1.908
		c0.449-0.771,0.673-1.732,0.673-2.881c0-1.846-0.886-3.229-2.656-4.152c-1.771-0.922-4.328-1.783-7.669-2.581
		c-1.047-0.249-2.158-0.562-3.33-0.936s-2.257-0.922-3.255-1.646c-0.998-0.722-1.821-1.633-2.469-2.731
		c-0.649-1.097-0.973-2.469-0.973-4.115c0-1.795,0.348-3.329,1.047-4.601c0.698-1.272,1.633-2.319,2.806-3.143
		c1.171-0.823,2.507-1.433,4.003-1.833c1.497-0.399,3.042-0.599,4.639-0.599c2.443,0,4.813,0.549,7.108,1.646
		c2.294,1.098,4.015,2.645,5.163,4.639L258.506,188.938z"/>
	<path fill="#FFFFFF" d="M55.373,264.879c-1.397-1.895-3.217-3.279-5.462-4.152c-2.245-0.871-4.44-1.31-6.584-1.31
		c-2.744,0-5.237,0.5-7.482,1.497c-2.245,0.998-4.178,2.369-5.799,4.115s-2.869,3.791-3.741,6.135
		c-0.874,2.345-1.31,4.889-1.31,7.632c0,2.894,0.423,5.536,1.272,7.931c0.848,2.396,2.058,4.453,3.629,6.174
		s3.454,3.056,5.649,4.002c2.194,0.949,4.663,1.423,7.407,1.423c2.843,0,5.361-0.562,7.557-1.685
		c2.194-1.123,3.965-2.605,5.312-4.451l7.557,5.312c-2.345,2.942-5.213,5.226-8.604,6.847c-3.393,1.619-7.358,2.432-11.896,2.432
		c-4.141,0-7.944-0.688-11.41-2.059c-3.468-1.371-6.447-3.291-8.941-5.761c-2.495-2.47-4.44-5.412-5.836-8.829
		c-1.397-3.416-2.095-7.193-2.095-11.335c0-4.239,0.735-8.067,2.207-11.485c1.471-3.416,3.491-6.321,6.061-8.715
		c2.568-2.396,5.599-4.24,9.091-5.537c3.491-1.297,7.282-1.945,11.373-1.945c1.695,0,3.466,0.162,5.312,0.486
		c1.845,0.324,3.616,0.822,5.312,1.496c1.695,0.674,3.292,1.51,4.789,2.506c1.496,0.998,2.768,2.195,3.815,3.592L55.373,264.879z"/>
	<path fill="#FFFFFF" d="M76.322,256.948c0,1.048-0.374,1.907-1.122,2.581c-0.749,0.674-1.571,1.011-2.469,1.011
		s-1.721-0.337-2.469-1.011c-0.748-0.674-1.122-1.533-1.122-2.581s0.374-1.908,1.122-2.581c0.749-0.674,1.571-1.01,2.469-1.01
		s1.721,0.336,2.469,1.01C75.948,255.04,76.322,255.9,76.322,256.948z M75.275,305.432h-5.088v-35.016h5.088V305.432z"/>
	<path fill="#FFFFFF" d="M104.604,274.682h-9.876v20.426c0,1.297,0.124,2.369,0.374,3.218c0.249,0.849,0.61,1.509,1.085,1.981
		c0.474,0.476,1.035,0.799,1.684,0.973c0.647,0.176,1.347,0.263,2.095,0.263c0.698,0,1.434-0.101,2.208-0.299
		c0.772-0.199,1.508-0.474,2.207-0.823l0.225,4.414c-0.898,0.35-1.833,0.609-2.806,0.786c-0.973,0.174-2.033,0.262-3.18,0.262
		c-0.948,0-1.945-0.125-2.993-0.374s-2.02-0.723-2.918-1.422c-0.898-0.697-1.634-1.646-2.207-2.843
		c-0.574-1.197-0.861-2.769-0.861-4.714v-21.848h-7.257v-4.266h7.257v-9.876h5.088v9.876h9.876L104.604,274.682L104.604,274.682z"/>
	<path fill="#FFFFFF" d="M147.325,287.924c0,2.645-0.461,5.088-1.384,7.332c-0.923,2.245-2.207,4.189-3.853,5.836
		s-3.617,2.932-5.911,3.854c-2.295,0.924-4.814,1.385-7.557,1.385c-2.693,0-5.188-0.461-7.482-1.385
		c-2.295-0.922-4.265-2.206-5.911-3.854c-1.646-1.646-2.931-3.591-3.853-5.836c-0.924-2.244-1.384-4.688-1.384-7.332
		s0.46-5.088,1.384-7.332c0.922-2.244,2.207-4.189,3.853-5.836s3.616-2.93,5.911-3.854c2.294-0.924,4.789-1.385,7.482-1.385
		c2.743,0,5.262,0.461,7.557,1.385c2.293,0.924,4.265,2.207,5.911,3.854s2.93,3.592,3.853,5.836S147.325,285.279,147.325,287.924z
		 M141.938,287.924c0-1.945-0.312-3.777-0.936-5.499c-0.624-1.721-1.509-3.218-2.656-4.489c-1.148-1.271-2.544-2.281-4.19-3.029
		s-3.492-1.122-5.537-1.122s-3.879,0.374-5.499,1.122c-1.622,0.748-3.006,1.758-4.152,3.029c-1.148,1.271-2.033,2.77-2.656,4.489
		c-0.625,1.722-0.935,3.554-0.935,5.499s0.311,3.778,0.935,5.499c0.623,1.722,1.508,3.218,2.656,4.489
		c1.146,1.271,2.531,2.271,4.152,2.993c1.62,0.724,3.454,1.085,5.499,1.085s3.891-0.361,5.537-1.085s3.042-1.722,4.19-2.993
		c1.146-1.271,2.032-2.77,2.656-4.489C141.626,291.702,141.938,289.869,141.938,287.924z"/>
	<path fill="#FFFFFF" d="M170.294,299.971h0.149l10.849-29.555h5.537l-17.433,44.068c-1.047,2.693-2.382,4.851-4.003,6.473
		c-1.621,1.62-3.954,2.432-6.996,2.432c-1.546,0-3.067-0.148-4.564-0.449l0.524-4.639c1.197,0.398,2.443,0.6,3.741,0.6
		c1.746,0,3.117-0.537,4.115-1.608c0.997-1.073,1.871-2.606,2.619-4.603l2.843-7.332l-14.964-34.94h5.686L170.294,299.971z"/>
	<path fill="#FFFFFF" d="M226.633,286.876c0,0.351,0,0.724,0,1.123s-0.025,0.821-0.075,1.271h-29.03
		c0.049,1.748,0.399,3.394,1.048,4.938c0.647,1.546,1.545,2.894,2.693,4.04c1.147,1.146,2.494,2.059,4.04,2.73
		c1.546,0.674,3.217,1.01,5.013,1.01c2.643,0,4.925-0.609,6.846-1.832c1.919-1.223,3.378-2.631,4.377-4.229l3.815,2.992
		c-2.095,2.645-4.402,4.54-6.921,5.688c-2.519,1.146-5.226,1.721-8.118,1.721c-2.594,0-5.001-0.461-7.22-1.385
		c-2.22-0.922-4.128-2.207-5.724-3.854c-1.597-1.646-2.856-3.591-3.778-5.836c-0.924-2.244-1.384-4.688-1.384-7.332
		s0.449-5.088,1.347-7.332s2.144-4.189,3.741-5.836c1.596-1.646,3.466-2.93,5.611-3.854c2.144-0.924,4.463-1.385,6.958-1.385
		c2.743,0,5.163,0.461,7.258,1.385c2.095,0.924,3.84,2.17,5.237,3.74c1.396,1.571,2.456,3.404,3.18,5.5
		S226.633,284.482,226.633,286.876z M221.47,285.23c-0.149-3.293-1.21-6.023-3.18-8.193c-1.971-2.169-4.777-3.254-8.417-3.254
		c-1.696,0-3.267,0.312-4.713,0.935c-1.447,0.625-2.719,1.472-3.816,2.544c-1.098,1.073-1.971,2.295-2.619,3.666
		c-0.649,1.373-1.023,2.807-1.122,4.303H221.47L221.47,285.23z"/>
	<path fill="#FFFFFF" d="M242.12,270.416c0.099,0.947,0.174,1.995,0.225,3.143c0.049,1.147,0.075,2.096,0.075,2.844h0.149
		c0.998-2.045,2.619-3.703,4.863-4.977c2.245-1.271,4.613-1.906,7.108-1.906c4.439,0,7.769,1.32,9.989,3.965
		c2.219,2.645,3.329,6.136,3.329,10.475v21.475h-5.087v-19.379c0-1.845-0.15-3.517-0.449-5.014
		c-0.299-1.496-0.811-2.779-1.534-3.854c-0.724-1.071-1.696-1.908-2.918-2.506c-1.223-0.6-2.757-0.897-4.602-0.897
		c-1.347,0-2.656,0.274-3.928,0.821c-1.272,0.551-2.407,1.386-3.404,2.508c-0.999,1.121-1.796,2.543-2.395,4.265
		s-0.897,3.754-0.897,6.099v17.957h-5.088v-27.311c0-0.946-0.026-2.17-0.075-3.666c-0.05-1.496-0.125-2.844-0.225-4.04
		L242.12,270.416L242.12,270.416z"/>
	<path fill="#FFFFFF" d="M285.59,270.416c0.099,0.947,0.174,1.995,0.225,3.143c0.049,1.147,0.075,2.096,0.075,2.844h0.149
		c0.998-2.045,2.619-3.703,4.863-4.977c2.245-1.271,4.613-1.906,7.108-1.906c4.439,0,7.77,1.32,9.989,3.965
		c2.219,2.645,3.329,6.136,3.329,10.475v21.475h-5.087v-19.379c0-1.845-0.15-3.517-0.449-5.014
		c-0.299-1.496-0.811-2.779-1.534-3.854c-0.724-1.071-1.695-1.908-2.918-2.506c-1.223-0.6-2.757-0.897-4.602-0.897
		c-1.347,0-2.656,0.274-3.928,0.821c-1.272,0.551-2.407,1.386-3.404,2.508c-0.999,1.121-1.796,2.543-2.395,4.265
		c-0.599,1.722-0.897,3.754-0.897,6.099v17.957h-5.088v-27.311c0-0.946-0.026-2.17-0.075-3.666c-0.05-1.496-0.125-2.844-0.225-4.04
		L285.59,270.416L285.59,270.416z"/>
	<path fill="#FFFFFF" d="M356.369,286.876c0,0.351,0,0.724,0,1.123s-0.025,0.821-0.075,1.271h-29.03
		c0.049,1.748,0.399,3.394,1.048,4.938c0.647,1.546,1.546,2.894,2.693,4.04s2.494,2.059,4.04,2.73
		c1.546,0.674,3.217,1.01,5.013,1.01c2.644,0,4.926-0.609,6.847-1.832c1.919-1.223,3.378-2.631,4.377-4.229l3.814,2.992
		c-2.095,2.645-4.401,4.54-6.921,5.688c-2.519,1.146-5.226,1.721-8.118,1.721c-2.594,0-5.001-0.461-7.22-1.385
		c-2.22-0.922-4.128-2.207-5.724-3.854c-1.598-1.646-2.856-3.591-3.778-5.836c-0.924-2.244-1.384-4.688-1.384-7.332
		s0.449-5.088,1.347-7.332c0.898-2.244,2.145-4.189,3.741-5.836c1.596-1.646,3.466-2.93,5.611-3.854
		c2.144-0.924,4.463-1.385,6.958-1.385c2.742,0,5.162,0.461,7.258,1.385c2.095,0.924,3.84,2.17,5.236,3.74
		c1.396,1.571,2.456,3.404,3.181,5.5C356.006,282.236,356.369,284.482,356.369,286.876z M351.206,285.23
		c-0.149-3.293-1.21-6.023-3.18-8.193c-1.972-2.169-4.777-3.254-8.417-3.254c-1.696,0-3.268,0.312-4.713,0.935
		c-1.447,0.625-2.72,1.472-3.816,2.544c-1.098,1.073-1.971,2.295-2.619,3.666c-0.648,1.373-1.023,2.807-1.122,4.303H351.206
		L351.206,285.23z"/>
	<path fill="#FFFFFF" d="M385.922,278.721c-0.748-1.445-1.883-2.63-3.404-3.554c-1.521-0.923-3.254-1.384-5.199-1.384
		c-0.898,0-1.796,0.101-2.694,0.299c-0.897,0.2-1.696,0.523-2.394,0.973c-0.699,0.449-1.261,1.023-1.685,1.721
		c-0.424,0.699-0.636,1.522-0.636,2.471c0,1.646,0.673,2.906,2.02,3.777c1.348,0.873,3.467,1.608,6.36,2.207
		c4.14,0.85,7.194,2.084,9.166,3.703c1.97,1.623,2.955,3.806,2.955,6.547c0,1.996-0.387,3.68-1.16,5.052
		c-0.774,1.372-1.784,2.493-3.03,3.366c-1.247,0.873-2.655,1.496-4.227,1.871c-1.571,0.373-3.155,0.561-4.751,0.561
		c-2.646,0-5.213-0.549-7.707-1.646c-2.495-1.097-4.54-2.816-6.135-5.162l4.04-2.992c0.897,1.547,2.219,2.843,3.966,3.891
		c1.745,1.047,3.666,1.571,5.761,1.571c1.097,0,2.144-0.101,3.143-0.3c0.997-0.198,1.871-0.549,2.619-1.047s1.348-1.135,1.796-1.908
		c0.449-0.772,0.674-1.732,0.674-2.881c0-1.846-0.887-3.229-2.656-4.152c-1.771-0.922-4.328-1.783-7.669-2.581
		c-1.047-0.249-2.158-0.562-3.33-0.937c-1.172-0.373-2.257-0.922-3.255-1.646s-1.821-1.634-2.47-2.731
		c-0.648-1.097-0.973-2.469-0.973-4.114c0-1.796,0.348-3.329,1.047-4.603c0.698-1.271,1.633-2.318,2.807-3.142
		c1.171-0.823,2.507-1.435,4.003-1.834c1.497-0.397,3.042-0.599,4.639-0.599c2.443,0,4.812,0.549,7.108,1.646
		c2.294,1.098,4.015,2.645,5.162,4.639L385.922,278.721z"/>
</g>
</svg>
