<?xml version="1.0" encoding="utf-8"?>
<!-- Generator: Adobe Illustrator 13.0.0, SVG Export Plug-In . SVG Version: 6.00 Build 14948)  -->
<!DOCTYPE svg PUBLIC "-//W3C//DTD SVG 1.1//EN" "http://www.w3.org/Graphics/SVG/1.1/DTD/svg11.dtd">
<svg version="1.1" id="Calque_1" xmlns="http://www.w3.org/2000/svg" xmlns:xlink="http://www.w3.org/1999/xlink" x="0px" y="0px"
	 width="508px" height="195px" viewBox="0 0 508 195" enable-background="new 0 0 508 195" xml:space="preserve">
<g id="Calque_2">
	<rect x="0" fill="none" width="508" height="195"/>
</g>
<g id="Calque_1_1_">
	<path fill="#FFFFFF" d="M118.807,165.714c-0.041-0.55-0.014-1.118,0.05-1.687c-13.178,0.369-43.62-3.442-58.377-6.728
		c15.047,4.964,45.217,9.69,58.632,10.13C118.959,166.878,118.853,166.302,118.807,165.714z"/>
	<path fill="#FFFFFF" d="M186.042,156.902c-0.264-0.795-0.455-1.615-0.559-2.467c-5.477,1.582-10.153,2.612-13.516,3.401
		c-13.201,2.536-24.521,4.142-35.064,5.104c0.165,0.709,0.234,1.439,0.224,2.184c0,0.357,0.02,0.707-0.028,1.059
		c-0.045,0.377-0.161,0.711-0.251,1.068c10.832-0.562,22.523-1.979,36.169-4.577c3.486-0.823,8.336-1.885,14.038-3.522
		C186.648,158.438,186.309,157.686,186.042,156.902z"/>
	<path fill="#FFFFFF" d="M137.127,165.126c0.011-0.743-0.059-1.476-0.224-2.183c-6.217,0.572-12.173,0.921-18.047,1.084
		c-0.062,0.568-0.09,1.137-0.05,1.687c0.045,0.588,0.152,1.164,0.305,1.718c5.756,0.182,11.614,0.141,17.736-0.179
		c0.09-0.356,0.207-0.692,0.251-1.067C137.147,165.833,137.127,165.482,137.127,165.126z"/>
	<path fill="#FFFFFF" d="M208.671,145.383c-8.389,4.292-16.412,7.096-23.188,9.053c0.104,0.853,0.295,1.674,0.559,2.467
		c0.266,0.783,0.605,1.537,1.012,2.252c6.89-1.979,15.033-4.822,23.652-9.227c-0.18-0.785-0.433-1.525-0.75-2.257
		C209.6,146.861,209.174,146.1,208.671,145.383z"/>
	<path fill="#FFFFFF" d="M50.031,110.71c13.55,6.646,27.792,10.162,40.928,11.951c26.385,4.03,48.597-0.497,58.801-4.695
		c9.411-3.653,17.955-9.086,21.769-17.696c4.276-9.039-1.822-18.342-7.728-22.517c-5.972-4.095-12.312-6.905-19.058-8.83
		c-0.021,0.335-0.065,0.667-0.104,0.998c-0.054,0.421-0.121,0.838-0.202,1.248c6.229,2.38,11.937,5.436,17.072,9.407
		c5.187,4.548,9.162,11.151,5.8,17.879c-3.037,6.547-10.494,11.543-19.332,14.888c-9.479,3.886-30.705,8.296-56.332,4.382
		c-12.739-1.73-26.539-5.166-39.387-11.478c-8.283-4.013-17.224-10.181-21.762-17.928c-1.555,0.618-3.113,1.239-4.679,1.854
		C30.979,99.72,41.322,106.344,50.031,110.71z"/>
	<g>
		<path fill="#FFFFFF" d="M242.28,110.081c-2.501,10.58-10.084,19.517-18.078,25.644c-5.168,3.869-10.417,7.034-15.53,9.658
			c0.503,0.717,0.929,1.479,1.287,2.288c0.316,0.729,0.57,1.472,0.75,2.257c5.414-2.767,11.008-6.13,16.581-10.292
			c8.842-6.802,17.681-17.127,20.144-29.965c-0.82,0.228-1.663,0.376-2.526,0.449C244.043,110.189,243.16,110.175,242.28,110.081z"
			/>
		<path fill="#FFFFFF" d="M248.13,102.389c-0.116-7.243-2.408-13.867-5.914-19.808c-0.878,0.1-1.725,0.276-2.552,0.53
			c-0.827,0.254-1.623,0.583-2.383,0.986c3.533,5.65,5.82,11.832,5.862,18.34c0.025,2.629-0.286,5.178-0.864,7.645
			c0.881,0.094,1.765,0.107,2.625,0.039c0.864-0.073,1.706-0.223,2.526-0.449C247.879,107.325,248.145,104.9,248.13,102.389z"/>
	</g>
	<path fill="#1570B2" d="M120.33,65.413c8.863,0.553,17.12,2.157,24.31,4.508c0.038-0.331,0.083-0.663,0.104-0.998
		C137.156,66.75,129.057,65.71,120.33,65.413z"/>
	<path fill="#1570B2" d="M120.33,65.413c8.8,1.123,16.819,2.972,24.107,5.755c0.081-0.41,0.148-0.826,0.202-1.248
		C137.45,67.57,129.194,65.966,120.33,65.413z"/>
	<path fill="#FCE90A" d="M146.775,67.388c-0.634,10.112-9.342,17.795-19.46,17.162c-10.104-0.633-17.791-9.34-17.159-19.452
		c0.633-10.111,9.346-17.799,19.453-17.165C139.723,48.564,147.405,57.275,146.775,67.388z"/>
	<path fill="#00892E" d="M252.936,86.342c-0.95,7.404-7.716,12.635-15.121,11.688c-7.404-0.949-12.638-7.718-11.688-15.122
		c0.951-7.402,7.719-12.635,15.124-11.686C248.656,72.168,253.886,78.937,252.936,86.342z"/>
	<path fill="#E85D10" d="M223.435,149.034c-0.842,6.562-6.841,11.207-13.405,10.362c-6.563-0.84-11.195-6.85-10.354-13.402
		c0.838-6.562,6.839-11.201,13.4-10.361C219.635,136.473,224.273,142.475,223.435,149.034z"/>
	<path fill="#0A71B3" d="M131.912,166.542c-0.681,5.288-5.521,9.029-10.812,8.349c-5.289-0.679-9.036-5.516-8.355-10.808
		c0.679-5.294,5.523-9.034,10.812-8.354C128.845,156.407,132.588,161.249,131.912,166.542z"/>
	<circle fill="#E30E6F" cx="29.084" cy="92.266" r="14.608"/>
	<g>
		<path fill="#FFFFFF" d="M17.354,71.273l1.175-3.791l7.633,2.367l1.149-3.714l3.109,0.963l-2.325,7.505L17.354,71.273z"/>
		<path fill="#FFFFFF" d="M21.646,61.04c-0.221-0.126-0.405-0.29-0.554-0.492c-0.147-0.202-0.251-0.423-0.312-0.664
			c-0.06-0.243-0.073-0.493-0.043-0.754c0.03-0.26,0.114-0.511,0.247-0.752c0.132-0.232,0.294-0.424,0.496-0.576
			c0.201-0.154,0.419-0.267,0.657-0.344c0.235-0.077,0.479-0.105,0.729-0.085c0.251,0.021,0.485,0.092,0.708,0.216
			c0.231,0.128,0.419,0.294,0.566,0.497c0.149,0.204,0.25,0.424,0.305,0.661c0.056,0.239,0.069,0.482,0.038,0.73
			c-0.029,0.251-0.109,0.488-0.238,0.72c-0.135,0.24-0.303,0.446-0.503,0.61c-0.201,0.166-0.418,0.287-0.65,0.366
			s-0.474,0.107-0.723,0.088C22.118,61.243,21.879,61.167,21.646,61.04z M23.787,62.157l1.862-3.335l7.295,4.074l-1.862,3.337
			L23.787,62.157z"/>
		<path fill="#FFFFFF" d="M32.761,54.388c-0.193-0.167-0.396-0.219-0.608-0.16c-0.208,0.06-0.41,0.201-0.604,0.427
			c-0.229,0.27-0.394,0.567-0.487,0.899c-0.097,0.332-0.149,0.652-0.163,0.96l-2.611,0.27c-0.027-0.719,0.096-1.44,0.367-2.166
			c0.271-0.726,0.658-1.38,1.158-1.966c0.538-0.629,1.066-1.076,1.585-1.344c0.521-0.266,1.031-0.392,1.533-0.376
			s0.992,0.145,1.469,0.386c0.477,0.239,0.938,0.549,1.379,0.928l3.347,2.858l-2.246,2.627l-0.507-0.434l-0.021,0.026
			c0.1,0.375,0.065,0.76-0.093,1.161c-0.162,0.4-0.366,0.746-0.617,1.04c-0.222,0.257-0.485,0.495-0.79,0.705
			c-0.306,0.209-0.634,0.357-0.984,0.444c-0.351,0.083-0.717,0.085-1.096,0.008c-0.379-0.076-0.759-0.276-1.136-0.601
			c-0.445-0.378-0.703-0.805-0.775-1.28c-0.073-0.476-0.03-0.967,0.126-1.471c0.157-0.502,0.403-1.005,0.738-1.511
			c0.332-0.505,0.688-0.977,1.057-1.412L32.761,54.388z M34.182,55.559c-0.364,0.427-0.612,0.81-0.746,1.144
			c-0.134,0.337-0.079,0.606,0.162,0.813c0.089,0.076,0.18,0.118,0.277,0.129c0.095,0.01,0.192-0.002,0.291-0.035
			c0.098-0.033,0.19-0.08,0.276-0.144c0.092-0.062,0.162-0.126,0.22-0.193c0.236-0.277,0.341-0.571,0.316-0.884
			c-0.027-0.311-0.172-0.581-0.438-0.807l-0.216-0.185L34.182,55.559z"/>
		<path fill="#FFFFFF" d="M33.433,45.925c-0.166-0.195-0.28-0.414-0.346-0.654c-0.065-0.242-0.084-0.487-0.054-0.733
			c0.029-0.246,0.106-0.486,0.229-0.72c0.119-0.232,0.285-0.437,0.497-0.615c0.204-0.169,0.426-0.291,0.667-0.364
			c0.242-0.071,0.487-0.101,0.734-0.087c0.248,0.015,0.486,0.074,0.713,0.18c0.226,0.109,0.421,0.258,0.583,0.455
			c0.17,0.2,0.29,0.423,0.354,0.666c0.067,0.242,0.082,0.483,0.05,0.728c-0.033,0.241-0.107,0.474-0.225,0.696
			c-0.117,0.221-0.276,0.417-0.479,0.587c-0.211,0.179-0.44,0.307-0.688,0.391c-0.247,0.083-0.491,0.121-0.736,0.111
			c-0.246-0.009-0.479-0.068-0.708-0.175C33.799,46.282,33.602,46.129,33.433,45.925z M35.034,47.731l2.925-2.455l5.375,6.399
			l-2.929,2.457L35.034,47.731z"/>
		<path fill="#FFFFFF" d="M49.239,44.469c0.306,0.47,0.458,0.933,0.458,1.387c0,0.455-0.096,0.881-0.291,1.278
			c-0.193,0.396-0.452,0.758-0.774,1.088c-0.323,0.33-0.657,0.604-0.996,0.825c-0.63,0.408-1.304,0.721-2.022,0.939
			c-0.719,0.221-1.402,0.314-2.053,0.283l0.436-2.764c0.349,0.05,0.713,0.039,1.093-0.036c0.376-0.074,0.704-0.201,0.981-0.381
			c0.11-0.073,0.203-0.159,0.274-0.263c0.071-0.102,0.071-0.207,0.003-0.314c-0.074-0.115-0.218-0.15-0.434-0.104
			c-0.217,0.045-0.567,0.154-1.056,0.333c-0.267,0.096-0.552,0.17-0.858,0.225c-0.309,0.054-0.615,0.06-0.922,0.02
			c-0.31-0.039-0.607-0.14-0.896-0.3c-0.286-0.159-0.54-0.41-0.759-0.749c-0.295-0.451-0.44-0.906-0.44-1.361
			c0.002-0.455,0.098-0.884,0.288-1.292c0.188-0.406,0.44-0.78,0.754-1.116c0.316-0.335,0.64-0.611,0.973-0.827
			c0.564-0.366,1.176-0.649,1.835-0.849c0.66-0.198,1.301-0.3,1.93-0.305l-0.384,2.691c-0.324,0.008-0.632,0.049-0.924,0.127
			c-0.293,0.075-0.557,0.187-0.786,0.338c-0.157,0.101-0.274,0.204-0.351,0.311c-0.077,0.105-0.077,0.216-0.003,0.331
			c0.059,0.09,0.161,0.122,0.309,0.096c0.146-0.026,0.453-0.133,0.92-0.322c0.318-0.133,0.649-0.23,0.997-0.294
			c0.343-0.064,0.679-0.081,1.009-0.048c0.327,0.034,0.637,0.132,0.926,0.297C48.765,43.879,49.02,44.129,49.239,44.469z"/>
		<path fill="#FFFFFF" d="M58.769,38.098c0.307,0.651,0.457,1.288,0.452,1.91c-0.005,0.625-0.132,1.208-0.383,1.751
			c-0.248,0.546-0.603,1.036-1.061,1.475c-0.458,0.438-0.987,0.797-1.584,1.079c-0.59,0.276-1.198,0.452-1.826,0.527
			c-0.632,0.073-1.231,0.033-1.807-0.126c-0.574-0.157-1.1-0.431-1.585-0.825c-0.482-0.393-0.878-0.914-1.186-1.567
			c-0.3-0.641-0.447-1.271-0.442-1.889c0.008-0.617,0.137-1.197,0.382-1.734c0.246-0.536,0.602-1.02,1.061-1.454
			c0.46-0.435,0.983-0.79,1.575-1.066c0.597-0.283,1.21-0.463,1.837-0.541c0.627-0.079,1.229-0.042,1.805,0.106
			c0.577,0.15,1.104,0.419,1.587,0.807C58.075,36.941,58.468,37.456,58.769,38.098z M53.685,38.981
			c-0.379,0.179-0.628,0.449-0.746,0.806c-0.116,0.36-0.096,0.708,0.062,1.042c0.167,0.355,0.43,0.602,0.786,0.736
			c0.356,0.137,0.724,0.116,1.104-0.063c0.378-0.177,0.63-0.447,0.752-0.81c0.121-0.362,0.1-0.72-0.067-1.075
			c-0.156-0.333-0.417-0.568-0.779-0.704C54.433,38.781,54.062,38.802,53.685,38.981z"/>
		<path fill="#FFFFFF" d="M59.236,33.502l3.527-1.185l0.293,0.873l0.032-0.01c0.111-0.362,0.335-0.717,0.672-1.072
			c0.341-0.354,0.776-0.622,1.308-0.8c0.574-0.191,1.083-0.251,1.532-0.178c0.446,0.072,0.836,0.23,1.166,0.47
			c0.33,0.241,0.604,0.542,0.826,0.904c0.221,0.362,0.395,0.739,0.527,1.131l1.617,4.818l-3.62,1.216L65.7,35.452
			c-0.137-0.403-0.297-0.66-0.479-0.778c-0.185-0.115-0.408-0.13-0.669-0.044c-0.24,0.084-0.406,0.243-0.496,0.478
			c-0.087,0.237-0.074,0.531,0.045,0.882l1.415,4.216l-3.622,1.217L59.236,33.502z"/>
		<path fill="#FFFFFF" d="M77.243,25.312l4.101-0.829l6.699,10.124l-4.199,0.848l-0.926-1.5l-3.646,0.737l-0.243,1.733l-4.084,0.824
			L77.243,25.312z M80.014,28.757l-0.391,2.913l1.863-0.376L80.014,28.757z"/>
		<path fill="#FFFFFF" d="M93.415,34.318c-0.733,0.096-1.419,0.08-2.058-0.049c-0.642-0.132-1.21-0.36-1.709-0.688
			c-0.499-0.33-0.911-0.75-1.233-1.264c-0.322-0.513-0.529-1.111-0.619-1.792c-0.089-0.671-0.041-1.301,0.145-1.885
			c0.184-0.585,0.479-1.103,0.89-1.552c0.404-0.446,0.905-0.819,1.494-1.11c0.593-0.29,1.246-0.484,1.968-0.58
			c0.294-0.038,0.596-0.054,0.902-0.045c0.309,0.008,0.605,0.034,0.896,0.082s0.559,0.108,0.809,0.182
			c0.247,0.072,0.463,0.163,0.644,0.267L94,28.748c-0.149-0.125-0.335-0.21-0.559-0.259c-0.224-0.048-0.435-0.06-0.63-0.033
			c-0.186,0.024-0.362,0.076-0.531,0.159c-0.166,0.081-0.31,0.19-0.432,0.329c-0.12,0.138-0.213,0.298-0.276,0.484
			c-0.064,0.185-0.081,0.393-0.051,0.624c0.03,0.231,0.103,0.426,0.21,0.589c0.111,0.162,0.243,0.29,0.394,0.381
			c0.15,0.093,0.317,0.157,0.499,0.19c0.184,0.035,0.369,0.041,0.554,0.015c0.219-0.028,0.426-0.095,0.624-0.202
			c0.197-0.106,0.352-0.236,0.467-0.39l2.236,2.291c-0.325,0.319-0.763,0.61-1.313,0.875C94.64,34.061,94.048,34.233,93.415,34.318z
			"/>
		<path fill="#FFFFFF" d="M101.102,33.438c-1.164,0.101-2.048-0.063-2.648-0.494c-0.603-0.433-0.949-1.153-1.036-2.167l-0.259-2.975
			l-1.219,0.105l-0.229-2.61l1.204-0.104l-0.164-1.869l3.692-0.321l0.16,1.868l1.878-0.164l0.229,2.611l-1.878,0.164l0.191,2.217
			c0.034,0.4,0.151,0.662,0.344,0.791c0.192,0.126,0.448,0.175,0.768,0.148c0.121-0.011,0.247-0.032,0.376-0.066
			c0.128-0.031,0.232-0.062,0.307-0.091l0.22,2.501c-0.191,0.103-0.462,0.194-0.815,0.278
			C101.872,33.343,101.497,33.403,101.102,33.438z"/>
		<path fill="#FFFFFF" d="M103.611,22.229c-0.014-0.253,0.026-0.497,0.118-0.73c0.092-0.232,0.227-0.44,0.397-0.617
			c0.172-0.178,0.376-0.326,0.613-0.44c0.236-0.115,0.492-0.177,0.768-0.191c0.265-0.015,0.514,0.02,0.75,0.109
			c0.237,0.088,0.451,0.212,0.643,0.371c0.19,0.158,0.346,0.349,0.46,0.572c0.119,0.222,0.184,0.459,0.198,0.714
			c0.014,0.264-0.023,0.512-0.117,0.746c-0.094,0.23-0.225,0.436-0.396,0.609c-0.173,0.174-0.373,0.313-0.599,0.424
			c-0.227,0.107-0.472,0.168-0.734,0.181c-0.276,0.017-0.536-0.018-0.785-0.1c-0.246-0.081-0.465-0.2-0.655-0.352
			c-0.19-0.155-0.344-0.342-0.46-0.565C103.692,22.736,103.625,22.495,103.611,22.229z M103.81,24.637l3.815-0.208l0.452,8.346
			l-3.815,0.206L103.81,24.637z"/>
		<path fill="#FFFFFF" d="M119.37,28.319c0.01,0.721-0.117,1.364-0.378,1.93c-0.265,0.564-0.621,1.043-1.072,1.435
			c-0.454,0.394-0.978,0.695-1.577,0.903c-0.598,0.21-1.227,0.32-1.889,0.327c-0.65,0.009-1.278-0.082-1.882-0.277
			c-0.603-0.191-1.135-0.48-1.59-0.86c-0.458-0.38-0.824-0.849-1.103-1.407c-0.279-0.556-0.422-1.196-0.434-1.916
			c-0.01-0.709,0.116-1.344,0.382-1.903c0.263-0.562,0.615-1.035,1.064-1.422c0.446-0.387,0.967-0.683,1.566-0.886
			c0.598-0.204,1.223-0.31,1.873-0.319c0.661-0.012,1.294,0.081,1.896,0.269s1.139,0.467,1.6,0.844
			c0.462,0.374,0.833,0.838,1.111,1.392C119.217,26.98,119.361,27.611,119.37,28.319z M114.375,27.021
			c-0.418,0.007-0.756,0.149-1.012,0.429c-0.256,0.28-0.382,0.603-0.377,0.974c0.007,0.392,0.142,0.723,0.411,0.995
			c0.268,0.271,0.611,0.405,1.031,0.398c0.419-0.005,0.758-0.147,1.019-0.426c0.265-0.279,0.391-0.613,0.385-1.006
			c-0.004-0.37-0.145-0.692-0.417-0.964C115.142,27.149,114.794,27.015,114.375,27.021z"/>
		<path fill="#FFFFFF" d="M121.123,24.207l3.718,0.14l-0.032,0.92l0.032,0.001c0.233-0.298,0.566-0.553,1.009-0.765
			c0.443-0.213,0.945-0.307,1.504-0.286c0.604,0.022,1.102,0.146,1.494,0.375c0.394,0.225,0.704,0.51,0.929,0.851
			c0.222,0.344,0.374,0.724,0.45,1.138c0.078,0.418,0.11,0.833,0.094,1.246l-0.188,5.081l-3.817-0.143l0.165-4.445
			c0.018-0.424-0.042-0.722-0.172-0.897c-0.129-0.175-0.335-0.266-0.611-0.277c-0.252-0.009-0.464,0.079-0.629,0.269
			c-0.167,0.189-0.258,0.47-0.271,0.841l-0.166,4.443l-3.818-0.141L121.123,24.207z"/>
		<path fill="#FFFFFF" d="M139.11,30.965c-0.044,0.56-0.206,1.019-0.483,1.378c-0.276,0.361-0.611,0.637-1.009,0.835
			c-0.395,0.197-0.819,0.325-1.278,0.391c-0.456,0.065-0.884,0.079-1.293,0.047c-0.744-0.062-1.472-0.223-2.173-0.487
			c-0.702-0.264-1.302-0.609-1.803-1.031l2.031-1.924c0.247,0.255,0.541,0.467,0.886,0.638c0.35,0.173,0.686,0.271,1.017,0.297
			c0.131,0.011,0.257-0.003,0.375-0.042c0.121-0.038,0.183-0.12,0.193-0.248c0.011-0.136-0.082-0.253-0.278-0.349
			c-0.198-0.093-0.543-0.222-1.038-0.38c-0.271-0.083-0.543-0.201-0.819-0.343c-0.276-0.145-0.523-0.327-0.747-0.547
			c-0.217-0.219-0.39-0.479-0.518-0.783c-0.134-0.304-0.186-0.653-0.15-1.058c0.044-0.536,0.203-0.987,0.483-1.345
			c0.273-0.36,0.616-0.644,1.014-0.851c0.4-0.206,0.824-0.348,1.278-0.422c0.452-0.077,0.88-0.095,1.273-0.065
			c0.67,0.054,1.327,0.203,1.972,0.447c0.644,0.243,1.218,0.554,1.717,0.936l-1.946,1.898c-0.261-0.192-0.529-0.347-0.808-0.464
			c-0.278-0.119-0.554-0.188-0.83-0.21c-0.188-0.015-0.344-0.005-0.466,0.033c-0.127,0.039-0.195,0.125-0.206,0.262
			c-0.005,0.107,0.053,0.194,0.188,0.262c0.134,0.07,0.441,0.172,0.925,0.307c0.334,0.091,0.656,0.215,0.97,0.374
			c0.311,0.159,0.587,0.35,0.828,0.576c0.24,0.229,0.426,0.495,0.558,0.803C139.092,30.208,139.143,30.564,139.11,30.965z"/>
		<path fill="#FFFFFF" d="M144.885,28.582c0.132-0.893,0.41-1.675,0.843-2.352c0.432-0.675,0.964-1.23,1.607-1.66
			c0.64-0.435,1.37-0.73,2.176-0.899c0.812-0.166,1.649-0.188,2.525-0.061c0.894,0.13,1.72,0.391,2.476,0.784
			c0.757,0.392,1.367,0.863,1.833,1.413l-2.789,2.42c-0.18-0.303-0.42-0.549-0.725-0.74c-0.31-0.188-0.667-0.312-1.067-0.371
			c-0.329-0.047-0.646-0.035-0.942,0.034c-0.298,0.07-0.571,0.193-0.81,0.372c-0.245,0.179-0.452,0.408-0.613,0.69
			c-0.165,0.281-0.271,0.605-0.325,0.972c-0.055,0.367-0.036,0.704,0.046,1.01c0.084,0.306,0.218,0.579,0.398,0.82
			c0.182,0.241,0.41,0.436,0.677,0.587c0.269,0.15,0.559,0.248,0.878,0.295c0.445,0.065,0.842,0.032,1.189-0.103
			c0.348-0.13,0.632-0.302,0.854-0.517l1.99,3.095c-0.594,0.429-1.296,0.738-2.105,0.925c-0.805,0.188-1.694,0.211-2.665,0.073
			c-0.874-0.126-1.674-0.386-2.404-0.781c-0.726-0.396-1.337-0.891-1.829-1.492c-0.495-0.6-0.854-1.284-1.077-2.049
			C144.807,30.284,144.76,29.461,144.885,28.582z"/>
		<path fill="#FFFFFF" d="M157.299,27.709l3.757,0.692l-1.511,8.217l-3.756-0.691L157.299,27.709z M157.669,25.325
			c0.049-0.253,0.145-0.479,0.287-0.684c0.147-0.206,0.319-0.375,0.529-0.507c0.211-0.134,0.448-0.228,0.701-0.285
			c0.256-0.054,0.521-0.058,0.794-0.007c0.26,0.048,0.492,0.143,0.699,0.283c0.214,0.141,0.391,0.311,0.541,0.511
			c0.147,0.2,0.253,0.42,0.314,0.665c0.06,0.243,0.066,0.486,0.024,0.738c-0.051,0.261-0.146,0.493-0.29,0.696
			c-0.146,0.207-0.32,0.375-0.528,0.502c-0.209,0.128-0.436,0.219-0.685,0.272c-0.242,0.05-0.498,0.053-0.756,0.004
			c-0.271-0.049-0.517-0.144-0.737-0.28c-0.22-0.138-0.409-0.304-0.557-0.499c-0.151-0.193-0.257-0.413-0.317-0.657
			C157.629,25.835,157.624,25.585,157.669,25.325z"/>
		<path fill="#FFFFFF" d="M164.953,37.969c-1.141-0.244-1.938-0.662-2.388-1.25c-0.452-0.591-0.563-1.381-0.351-2.375l0.625-2.92
			l-1.198-0.256l0.548-2.565l1.182,0.256l0.395-1.833l3.622,0.776l-0.394,1.833l1.848,0.394l-0.555,2.565l-1.846-0.396l-0.464,2.175
			c-0.087,0.391-0.054,0.678,0.094,0.856c0.148,0.178,0.38,0.3,0.688,0.368c0.12,0.026,0.249,0.042,0.381,0.05
			c0.134,0.004,0.243,0.007,0.32,0l-0.526,2.455c-0.211,0.043-0.498,0.049-0.861,0.028
			C165.716,38.107,165.341,38.053,164.953,37.969z"/>
		<path fill="#FFFFFF" d="M178.426,36.749c-0.185,0.697-0.48,1.282-0.881,1.759c-0.401,0.474-0.875,0.839-1.415,1.099
			c-0.541,0.259-1.123,0.409-1.76,0.454c-0.631,0.043-1.267-0.02-1.906-0.186c-0.627-0.164-1.21-0.418-1.74-0.765
			c-0.532-0.347-0.966-0.764-1.309-1.251c-0.344-0.491-0.568-1.038-0.686-1.65c-0.122-0.612-0.089-1.264,0.09-1.961
			c0.178-0.688,0.469-1.267,0.872-1.737c0.401-0.469,0.869-0.831,1.4-1.086c0.532-0.254,1.118-0.401,1.749-0.438
			c0.628-0.038,1.257,0.025,1.89,0.188c0.639,0.167,1.226,0.421,1.758,0.761c0.529,0.342,0.973,0.756,1.317,1.239
			c0.348,0.487,0.58,1.032,0.699,1.637C178.631,35.417,178.601,36.062,178.426,36.749z M173.949,34.172
			c-0.404-0.105-0.769-0.059-1.088,0.143s-0.526,0.482-0.619,0.838c-0.102,0.381-0.058,0.736,0.132,1.07
			c0.186,0.334,0.482,0.551,0.887,0.658c0.407,0.104,0.768,0.06,1.097-0.14c0.326-0.201,0.535-0.49,0.636-0.87
			c0.093-0.359,0.046-0.707-0.146-1.04C174.652,34.498,174.353,34.279,173.949,34.172z"/>
		<path fill="#FFFFFF" d="M181.217,41.684l-0.895-8.717l4.031,1.297l-0.123,4.583l0.064,0.021l2.431-3.838l3.893,1.251l-6.12,7.343
			c-0.354,0.43-0.724,0.799-1.101,1.104c-0.376,0.307-0.776,0.542-1.2,0.707c-0.423,0.164-0.889,0.244-1.391,0.236
			c-0.499-0.005-1.055-0.105-1.664-0.303c-0.187-0.06-0.381-0.129-0.575-0.208c-0.191-0.079-0.379-0.163-0.555-0.247
			c-0.175-0.085-0.336-0.165-0.487-0.241c-0.15-0.076-0.273-0.145-0.365-0.21l1.386-2.74c0.119,0.096,0.269,0.19,0.456,0.288
			c0.181,0.099,0.354,0.173,0.51,0.224c0.399,0.127,0.721,0.146,0.964,0.053c0.245-0.095,0.454-0.246,0.624-0.457L181.217,41.684z"
			/>
		<path fill="#FFFFFF" d="M198.683,43.995c-0.049,0.128-0.102,0.258-0.161,0.389c-0.056,0.131-0.107,0.239-0.151,0.325l-5.453-2.133
			c-0.043,0.142-0.043,0.285,0.002,0.428c0.044,0.141,0.115,0.276,0.214,0.405c0.094,0.13,0.215,0.246,0.363,0.347
			c0.141,0.102,0.296,0.184,0.461,0.25c0.327,0.129,0.625,0.178,0.889,0.153c0.265-0.029,0.483-0.089,0.65-0.184l2.041,2.217
			c-0.575,0.421-1.272,0.662-2.082,0.719c-0.81,0.06-1.667-0.088-2.569-0.442c-0.584-0.228-1.122-0.539-1.603-0.934
			c-0.488-0.396-0.876-0.851-1.16-1.367c-0.296-0.516-0.465-1.086-0.517-1.71c-0.053-0.622,0.061-1.279,0.329-1.97
			c0.249-0.642,0.595-1.174,1.034-1.598c0.435-0.427,0.932-0.74,1.478-0.941c0.542-0.202,1.135-0.294,1.755-0.275
			c0.63,0.017,1.254,0.148,1.885,0.393c0.634,0.248,1.171,0.582,1.615,0.999c0.44,0.418,0.773,0.887,0.996,1.415
			c0.229,0.526,0.344,1.09,0.344,1.694C199.042,42.776,198.92,43.384,198.683,43.995z M196.053,41.687
			c0.106-0.276,0.09-0.544-0.05-0.804c-0.143-0.259-0.39-0.46-0.752-0.6c-0.395-0.153-0.733-0.168-1.03-0.043
			c-0.294,0.121-0.5,0.285-0.614,0.489L196.053,41.687z"/>
		<path fill="#FFFFFF" d="M202.01,40.794l3.361,1.602l-0.396,0.831l0.026,0.014c0.329-0.181,0.739-0.282,1.232-0.302
			c0.49-0.018,0.985,0.093,1.495,0.333c0.54,0.259,0.953,0.573,1.221,0.937c0.272,0.364,0.442,0.746,0.516,1.15
			c0.069,0.401,0.058,0.809-0.037,1.222c-0.094,0.415-0.228,0.809-0.409,1.18l-2.188,4.588l-3.444-1.643l1.914-4.015
			c0.177-0.381,0.246-0.68,0.195-0.893c-0.051-0.209-0.201-0.374-0.448-0.496c-0.229-0.108-0.461-0.11-0.688,0
			c-0.229,0.108-0.423,0.329-0.582,0.664l-1.915,4.013l-3.448-1.641L202.01,40.794z"/>
		<path fill="#FFFFFF" d="M212.584,45.939l3.204,1.888l-0.467,0.793l0.027,0.015c0.346-0.151,0.764-0.215,1.25-0.19
			c0.491,0.024,0.979,0.178,1.46,0.461c0.52,0.307,0.904,0.655,1.14,1.042c0.238,0.386,0.37,0.782,0.406,1.191
			c0.033,0.405-0.007,0.812-0.139,1.214c-0.128,0.403-0.295,0.784-0.51,1.139l-2.576,4.381l-3.292-1.94l2.256-3.83
			c0.214-0.368,0.302-0.657,0.275-0.873c-0.033-0.216-0.171-0.393-0.407-0.534c-0.219-0.129-0.448-0.149-0.684-0.06
			c-0.239,0.087-0.451,0.289-0.637,0.609l-2.261,3.833l-3.292-1.941L212.584,45.939z"/>
		<path fill="#FFFFFF" d="M227.526,60.904c-0.083,0.11-0.168,0.221-0.255,0.334c-0.088,0.111-0.17,0.202-0.233,0.272l-4.704-3.479
			c-0.083,0.126-0.121,0.262-0.113,0.412c0.007,0.149,0.04,0.3,0.1,0.451c0.061,0.148,0.145,0.292,0.259,0.426
			c0.112,0.136,0.242,0.257,0.382,0.362c0.285,0.209,0.556,0.335,0.817,0.378c0.271,0.043,0.49,0.041,0.676-0.005l1.397,2.671
			c-0.667,0.257-1.403,0.308-2.202,0.152c-0.793-0.155-1.585-0.521-2.363-1.097c-0.506-0.372-0.941-0.814-1.309-1.32
			c-0.364-0.508-0.618-1.049-0.766-1.622c-0.146-0.575-0.161-1.168-0.047-1.785c0.11-0.615,0.387-1.22,0.831-1.817
			c0.409-0.553,0.88-0.979,1.414-1.274c0.533-0.296,1.089-0.472,1.671-0.523c0.58-0.052,1.172,0.013,1.769,0.193
			c0.604,0.18,1.174,0.471,1.714,0.87c0.546,0.406,0.981,0.87,1.299,1.386c0.32,0.519,0.52,1.06,0.596,1.626
			c0.081,0.568,0.044,1.143-0.112,1.725C228.19,59.821,227.917,60.376,227.526,60.904z M225.587,57.99
			c0.179-0.239,0.229-0.502,0.161-0.79c-0.066-0.286-0.257-0.545-0.564-0.775c-0.34-0.25-0.667-0.352-0.982-0.313
			c-0.32,0.042-0.563,0.148-0.729,0.313L225.587,57.99z"/>
		<path fill="#FFFFFF" d="M233.093,67.999c-0.379,0.412-0.792,0.671-1.234,0.782c-0.438,0.111-0.875,0.121-1.309,0.031
			c-0.433-0.093-0.847-0.256-1.244-0.487c-0.403-0.231-0.75-0.487-1.043-0.763c-0.551-0.511-1.021-1.088-1.411-1.731
			c-0.385-0.643-0.646-1.285-0.771-1.925l2.785-0.251c0.035,0.353,0.137,0.7,0.3,1.05c0.162,0.348,0.368,0.634,0.61,0.86
			c0.096,0.091,0.204,0.157,0.32,0.202c0.117,0.043,0.22,0.019,0.307-0.074c0.099-0.101,0.093-0.249-0.002-0.448
			c-0.099-0.197-0.291-0.511-0.58-0.941c-0.158-0.234-0.305-0.495-0.43-0.778c-0.128-0.285-0.208-0.582-0.245-0.891
			c-0.037-0.308-0.011-0.621,0.073-0.939c0.085-0.318,0.266-0.625,0.541-0.919c0.368-0.396,0.771-0.649,1.212-0.758
			c0.439-0.11,0.88-0.125,1.321-0.039c0.443,0.084,0.862,0.237,1.266,0.461c0.403,0.222,0.75,0.468,1.039,0.738
			c0.493,0.46,0.917,0.982,1.272,1.571c0.354,0.59,0.609,1.19,0.767,1.797l-2.706,0.285c-0.083-0.31-0.199-0.599-0.344-0.865
			c-0.148-0.264-0.318-0.49-0.523-0.679c-0.136-0.128-0.266-0.215-0.385-0.263c-0.118-0.047-0.226-0.021-0.325,0.079
			c-0.072,0.079-0.077,0.186-0.015,0.323c0.061,0.135,0.242,0.406,0.537,0.812c0.206,0.278,0.382,0.576,0.528,0.893
			c0.146,0.317,0.246,0.64,0.294,0.967c0.05,0.326,0.027,0.651-0.062,0.972C233.55,67.395,233.369,67.702,233.093,67.999z"/>
	</g>
	<g enable-background="new    ">
		<path fill="#FFFFFF" d="M264.137,99.848l5.697-32.383h6.982l-5.74,32.383H264.137z"/>
		<path fill="#FFFFFF" d="M297.891,84.77c0,0.4-0.021,0.829-0.064,1.285c-0.043,0.457-0.107,0.899-0.192,1.328l-1.456,8.31
			c-0.144,0.743-0.251,1.499-0.322,2.271s-0.106,1.399-0.106,1.885h-6.083c0-0.313,0.015-0.678,0.043-1.093
			c0.028-0.413,0.071-0.806,0.129-1.178h-0.086c-1.57,1.856-3.741,2.784-6.511,2.784c-0.743,0-1.507-0.093-2.292-0.278
			s-1.499-0.499-2.142-0.942c-0.643-0.442-1.163-1.027-1.563-1.756s-0.6-1.62-0.6-2.678c0-1.713,0.428-3.111,1.285-4.197
			c0.856-1.085,1.977-1.928,3.362-2.527c1.385-0.6,2.956-1.014,4.712-1.242s3.52-0.343,5.29-0.343
			c0.058-0.257,0.086-0.456,0.086-0.6c0-0.143,0-0.271,0-0.386c0-0.828-0.294-1.435-0.878-1.82
			c-0.586-0.386-1.407-0.578-2.463-0.578c-0.972,0-1.949,0.186-2.935,0.557s-1.878,0.856-2.677,1.456l-2.828-3.94
			c1.285-1.028,2.764-1.82,4.434-2.377c1.671-0.558,3.32-0.836,4.947-0.836c1.285,0,2.471,0.136,3.556,0.407
			s2.021,0.692,2.806,1.264s1.406,1.285,1.863,2.142S297.891,83.57,297.891,84.77z M290.309,90.51c-0.856,0-1.729,0.036-2.613,0.107
			s-1.678,0.221-2.377,0.449s-1.277,0.543-1.734,0.942c-0.457,0.4-0.686,0.929-0.686,1.585c0,0.856,0.293,1.435,0.878,1.734
			c0.585,0.301,1.235,0.45,1.949,0.45c1.313,0,2.413-0.407,3.298-1.221s1.441-1.82,1.671-3.02l0.214-1.028H290.309z"/>
		<path fill="#FFFFFF" d="M317.809,85.284c-0.314-0.485-0.807-0.914-1.479-1.285c-0.67-0.371-1.42-0.558-2.248-0.558
			c-0.914,0-1.756,0.179-2.527,0.534s-1.436,0.847-1.992,1.473c-0.557,0.625-0.992,1.344-1.307,2.154s-0.471,1.657-0.471,2.539
			c0,0.598,0.092,1.174,0.278,1.729c0.186,0.555,0.464,1.038,0.835,1.45c0.371,0.413,0.85,0.747,1.436,1.003
			c0.585,0.257,1.277,0.384,2.077,0.384c1.028,0,1.899-0.185,2.613-0.557c0.714-0.37,1.327-0.828,1.842-1.37l3.255,4.387
			c-1.113,1.008-2.37,1.806-3.77,2.396c-1.398,0.59-3.013,0.885-4.84,0.885c-1.542,0-2.955-0.222-4.24-0.664
			s-2.377-1.077-3.277-1.906c-0.899-0.827-1.6-1.812-2.099-2.955c-0.5-1.142-0.749-2.427-0.749-3.855
			c0-1.741,0.312-3.405,0.941-4.99c0.628-1.585,1.514-2.983,2.656-4.198c1.142-1.213,2.52-2.185,4.133-2.912
			c1.613-0.729,3.406-1.093,5.377-1.093c1.627,0,3.147,0.272,4.561,0.814c1.414,0.543,2.521,1.37,3.32,2.484L317.809,85.284z"/>
		<path fill="#FFFFFF" d="M322.35,91.409l0.984-5.44h10.795l-0.942,5.44H322.35z"/>
		<path fill="#FFFFFF" d="M353.19,85.284c-0.314-0.485-0.807-0.914-1.479-1.285c-0.67-0.371-1.42-0.558-2.248-0.558
			c-0.914,0-1.756,0.179-2.527,0.534s-1.436,0.847-1.992,1.473c-0.557,0.625-0.992,1.344-1.307,2.154s-0.471,1.657-0.471,2.539
			c0,0.598,0.092,1.174,0.278,1.729c0.186,0.555,0.464,1.038,0.835,1.45c0.371,0.413,0.85,0.747,1.436,1.003
			c0.585,0.257,1.277,0.384,2.077,0.384c1.028,0,1.899-0.185,2.613-0.557c0.714-0.37,1.327-0.828,1.842-1.37l3.255,4.387
			c-1.113,1.008-2.37,1.806-3.77,2.396c-1.398,0.59-3.013,0.885-4.84,0.885c-1.542,0-2.955-0.222-4.24-0.664
			s-2.377-1.077-3.277-1.906c-0.899-0.827-1.6-1.812-2.099-2.955c-0.5-1.142-0.749-2.427-0.749-3.855
			c0-1.741,0.312-3.405,0.941-4.99c0.628-1.585,1.514-2.983,2.656-4.198c1.142-1.213,2.52-2.185,4.133-2.912
			c1.613-0.729,3.406-1.093,5.377-1.093c1.627,0,3.147,0.272,4.561,0.814c1.414,0.543,2.521,1.37,3.32,2.484L353.19,85.284z"/>
		<path fill="#FFFFFF" d="M371.524,99.848l2.013-11.565c0.143-0.656,0.214-1.256,0.214-1.799c0-0.8-0.207-1.479-0.621-2.035
			s-1.15-0.835-2.206-0.835c-1.257,0-2.263,0.465-3.02,1.392c-0.757,0.929-1.249,2.05-1.478,3.363l-2.057,11.479h-6.854
			l5.697-32.383h6.896L367.668,81.3h0.086c0.6-0.885,1.441-1.663,2.527-2.334c1.084-0.671,2.355-1.007,3.812-1.007
			c1.199,0,2.228,0.171,3.084,0.514s1.563,0.814,2.12,1.414s0.965,1.292,1.221,2.077c0.258,0.786,0.387,1.606,0.387,2.463
			c0,0.4-0.016,0.793-0.043,1.179c-0.029,0.385-0.086,0.764-0.172,1.135l-2.312,13.107H371.524z"/>
		<path fill="#FFFFFF" d="M404.977,84.77c0,0.4-0.021,0.829-0.064,1.285c-0.043,0.457-0.107,0.899-0.192,1.328l-1.456,8.31
			c-0.144,0.743-0.251,1.499-0.322,2.271s-0.106,1.399-0.106,1.885h-6.083c0-0.313,0.015-0.678,0.043-1.093
			c0.028-0.413,0.071-0.806,0.129-1.178h-0.086c-1.57,1.856-3.741,2.784-6.511,2.784c-0.743,0-1.507-0.093-2.292-0.278
			s-1.499-0.499-2.142-0.942c-0.643-0.442-1.163-1.027-1.563-1.756s-0.6-1.62-0.6-2.678c0-1.713,0.428-3.111,1.285-4.197
			c0.856-1.085,1.977-1.928,3.362-2.527c1.385-0.6,2.956-1.014,4.712-1.242s3.52-0.343,5.29-0.343
			c0.058-0.257,0.086-0.456,0.086-0.6c0-0.143,0-0.271,0-0.386c0-0.828-0.294-1.435-0.878-1.82
			c-0.586-0.386-1.407-0.578-2.463-0.578c-0.972,0-1.949,0.186-2.935,0.557s-1.878,0.856-2.677,1.456l-2.828-3.94
			c1.285-1.028,2.764-1.82,4.434-2.377c1.671-0.558,3.32-0.836,4.947-0.836c1.285,0,2.471,0.136,3.556,0.407
			s2.021,0.692,2.806,1.264s1.406,1.285,1.863,2.142S404.977,83.57,404.977,84.77z M397.395,90.51c-0.856,0-1.729,0.036-2.613,0.107
			s-1.678,0.221-2.377,0.449s-1.277,0.543-1.734,0.942c-0.457,0.4-0.686,0.929-0.686,1.585c0,0.856,0.293,1.435,0.878,1.734
			c0.585,0.301,1.235,0.45,1.949,0.45c1.313,0,2.413-0.407,3.298-1.221s1.441-1.82,1.671-3.02l0.214-1.028H397.395z"/>
		<path fill="#FFFFFF" d="M417.955,81.257c0.742-0.999,1.721-1.799,2.935-2.398s2.505-0.899,3.876-0.899s2.605,0.229,3.705,0.686
			s2.027,1.092,2.785,1.906c0.756,0.813,1.334,1.785,1.734,2.912c0.399,1.129,0.6,2.35,0.6,3.663c0,1.827-0.293,3.548-0.878,5.161
			c-0.586,1.614-1.407,3.021-2.463,4.22c-1.058,1.199-2.3,2.142-3.728,2.827c-1.428,0.685-2.998,1.027-4.711,1.027
			c-1.514,0-2.906-0.314-4.177-0.942c-1.271-0.627-2.234-1.499-2.892-2.612h-0.086l-0.514,3.041h-6.34l5.697-32.383h6.896
			l-2.527,13.792H417.955z M426.78,88.025c0-1.285-0.371-2.362-1.113-3.234c-0.744-0.87-1.842-1.307-3.299-1.307
			c-0.856,0-1.656,0.187-2.398,0.558c-0.743,0.371-1.379,0.871-1.906,1.499c-0.529,0.628-0.949,1.356-1.264,2.185
			s-0.471,1.699-0.471,2.612c0,1.314,0.398,2.393,1.199,3.234c0.799,0.843,1.898,1.264,3.298,1.264c0.913,0,1.735-0.178,2.463-0.535
			c0.729-0.357,1.35-0.842,1.863-1.457c0.515-0.613,0.913-1.334,1.2-2.163C426.636,89.854,426.78,88.968,426.78,88.025z"/>
		<path fill="#FFFFFF" d="M436.031,99.848l5.697-32.383h6.982l-5.74,32.383H436.031z"/>
		<path fill="#FFFFFF" d="M469.785,84.77c0,0.4-0.021,0.829-0.064,1.285c-0.043,0.457-0.107,0.899-0.192,1.328l-1.456,8.31
			c-0.144,0.743-0.251,1.499-0.322,2.271s-0.106,1.399-0.106,1.885h-6.083c0-0.313,0.015-0.678,0.043-1.093
			c0.028-0.413,0.071-0.806,0.129-1.178h-0.086c-1.57,1.856-3.741,2.784-6.511,2.784c-0.743,0-1.507-0.093-2.292-0.278
			s-1.499-0.499-2.142-0.942c-0.643-0.442-1.163-1.027-1.563-1.756s-0.6-1.62-0.6-2.678c0-1.713,0.428-3.111,1.285-4.197
			c0.856-1.085,1.977-1.928,3.362-2.527c1.385-0.6,2.956-1.014,4.712-1.242s3.52-0.343,5.29-0.343
			c0.058-0.257,0.086-0.456,0.086-0.6c0-0.143,0-0.271,0-0.386c0-0.828-0.294-1.435-0.878-1.82
			c-0.586-0.386-1.407-0.578-2.463-0.578c-0.972,0-1.949,0.186-2.935,0.557s-1.878,0.856-2.677,1.456l-2.828-3.94
			c1.285-1.028,2.764-1.82,4.434-2.377c1.671-0.558,3.32-0.836,4.947-0.836c1.285,0,2.471,0.136,3.556,0.407
			s2.021,0.692,2.806,1.264s1.406,1.285,1.863,2.142S469.785,83.57,469.785,84.77z M462.203,90.51c-0.856,0-1.729,0.036-2.613,0.107
			s-1.678,0.221-2.377,0.449s-1.277,0.543-1.734,0.942c-0.457,0.4-0.686,0.929-0.686,1.585c0,0.856,0.293,1.435,0.878,1.734
			c0.585,0.301,1.235,0.45,1.949,0.45c1.313,0,2.413-0.407,3.298-1.221s1.441-1.82,1.671-3.02l0.214-1.028H462.203z"/>
		<path fill="#FFFFFF" d="M472.655,99.848l3.727-21.332h6.896l-3.812,21.332H472.655z M484.735,71.362c0,0.571-0.101,1.1-0.3,1.585
			c-0.2,0.486-0.479,0.921-0.835,1.307c-0.357,0.386-0.779,0.686-1.264,0.899c-0.486,0.214-1.015,0.321-1.586,0.321
			c-1.085,0-1.977-0.321-2.677-0.964s-1.05-1.463-1.05-2.463c0-1.171,0.393-2.148,1.178-2.935c0.785-0.785,1.75-1.178,2.893-1.178
			c1.056,0,1.928,0.329,2.612,0.985C484.392,69.578,484.735,70.392,484.735,71.362z"/>
		<path fill="#FFFFFF" d="M487.69,93.037c0.542,0.8,1.264,1.406,2.163,1.82s1.82,0.621,2.763,0.621c0.914,0,1.648-0.171,2.206-0.514
			c0.557-0.343,0.835-0.814,0.835-1.414c0-0.57-0.257-1.013-0.771-1.328c-0.514-0.313-1.271-0.627-2.27-0.942
			c-1-0.285-1.878-0.606-2.635-0.964c-0.757-0.356-1.392-0.771-1.906-1.242c-0.514-0.471-0.898-1.013-1.156-1.627
			c-0.257-0.614-0.385-1.335-0.385-2.163c0-1.171,0.264-2.213,0.792-3.127s1.228-1.692,2.099-2.335s1.892-1.128,3.062-1.456
			s2.398-0.493,3.684-0.493c1.656,0,3.205,0.278,4.648,0.836c1.441,0.557,2.592,1.378,3.447,2.463l-4.326,3.641
			c-0.4-0.571-0.949-1.042-1.648-1.413c-0.7-0.371-1.535-0.558-2.506-0.558c-0.743,0-1.421,0.144-2.035,0.429
			c-0.614,0.286-0.921,0.771-0.921,1.456c0,0.486,0.229,0.864,0.686,1.136c0.456,0.271,1.157,0.535,2.099,0.792
			c1.999,0.543,3.577,1.293,4.733,2.249c1.157,0.957,1.735,2.35,1.735,4.177c0,1.285-0.279,2.406-0.836,3.362
			c-0.557,0.957-1.285,1.742-2.184,2.355c-0.9,0.615-1.928,1.071-3.085,1.371c-1.156,0.3-2.335,0.45-3.534,0.45
			c-1.97,0-3.727-0.329-5.268-0.985c-1.543-0.657-2.799-1.557-3.77-2.699L487.69,93.037z"/>
	</g>
</g>
</svg>
