<?xml version="1.0" encoding="utf-8"?>
<!-- Generator: Adobe Illustrator 13.0.0, SVG Export Plug-In . SVG Version: 6.00 Build 14948)  -->
<!DOCTYPE svg PUBLIC "-//W3C//DTD SVG 1.1//EN" "http://www.w3.org/Graphics/SVG/1.1/DTD/svg11.dtd">
<svg version="1.1" id="Calque_1" xmlns="http://www.w3.org/2000/svg" xmlns:xlink="http://www.w3.org/1999/xlink" x="0px" y="0px"
	 width="200px" height="200px" viewBox="0 0 200 200" enable-background="new 0 0 200 200" xml:space="preserve">
<g>
	<g>
		<g>
			<path fill="#FFFFFF" stroke="#0071BC" stroke-width="6" d="M134.802,42.835c0,22.019-17.849,39.864-39.854,39.864
				c-22.021,0-39.865-17.845-39.865-39.864c0-22.003,17.844-39.85,39.865-39.85C116.953,2.985,134.802,20.832,134.802,42.835z"/>
			<path fill="#FFFFFF" stroke="#0071BC" stroke-width="6" d="M23.089,157.185v-40.433c0-19.858,16.09-35.953,35.954-35.953
				l29.494,21.691l47.814-21.691c19.856,0,35.952,16.095,35.952,35.953v40.433H23.089z"/>
			<line fill="none" stroke="#0071BC" stroke-width="6" x1="56.72" y1="156.436" x2="56.72" y2="121.566"/>
			<line fill="none" stroke="#0071BC" stroke-width="6" x1="137.03" y1="156.436" x2="137.03" y2="121.566"/>
		</g>
		<circle fill="#F7931E" cx="142.544" cy="60.935" r="27.481"/>
		<g>
			<path fill="#FFFFFF" d="M147.006,66.964h-9.955v-1.69c0-2.237,0.25-3.887,0.751-4.953c0.502-1.063,1.413-1.891,2.737-2.482
				l1.825-0.805c1.377-0.609,2.066-1.467,2.066-2.577c0-0.644-0.224-1.189-0.671-1.637s-0.993-0.671-1.637-0.671
				c-1.754,0-2.63,1.217-2.63,3.65h-9.259c0-3.256,0.75-5.912,2.253-7.971c1.108-1.52,2.55-2.728,4.32-3.623
				c1.771-0.895,3.605-1.342,5.502-1.342c3.363,0,6.193,1.114,8.494,3.341c2.298,2.228,3.449,4.988,3.449,8.28
				c0,4.062-1.647,6.914-4.939,8.561c-1.072,0.537-1.727,1.002-1.959,1.395C147.122,64.836,147.006,65.677,147.006,66.964z
				 M142.201,68.387c1.753,0,3.263,0.636,4.522,1.905c1.262,1.271,1.894,2.783,1.894,4.536c0,1.754-0.629,3.243-1.88,4.469
				c-1.253,1.225-2.765,1.838-4.536,1.838c-1.843,0-3.359-0.597-4.549-1.786c-1.19-1.19-1.783-2.706-1.783-4.548
				c0-1.79,0.616-3.306,1.852-4.55C138.955,69.009,140.448,68.387,142.201,68.387z"/>
		</g>
		<g>
			<path fill="#F7931E" d="M82.469,145.183l-5.947-13.191c-0.963-2.138-2.226-2.856-3.784-2.155
				c-0.635,0.287-1.083,0.757-1.343,1.413c-0.261,0.653-0.249,1.298,0.037,1.934c0.285,0.634,0.757,1.082,1.411,1.343
				c0.655,0.26,1.295,0.252,1.917-0.03c0.484-0.218,0.889-0.642,1.215-1.267l2.997,6.645c-0.676,0.395-1.198,0.674-1.562,0.84
				c-2.236,1.009-4.544,1.053-6.926,0.134c-2.38-0.918-4.084-2.518-5.112-4.798c-1.057-2.341-1.126-4.69-0.209-7.045
				c0.918-2.354,2.576-4.069,4.973-5.151c1.204-0.544,2.497-0.811,3.879-0.799c1.383,0.012,2.646,0.295,3.79,0.852
				c1.987,0.966,3.536,2.681,4.646,5.142l6.049,13.42L82.469,145.183z"/>
			<path fill="#F7931E" d="M81.849,119.229l6.031-2.718l4.093,9.078c0.413,0.914,0.999,1.198,1.762,0.854
				c0.753-0.34,0.924-0.967,0.511-1.879l-4.093-9.079l6.031-2.721l4.042,8.966c0.94,2.088,1.041,4.159,0.301,6.222
				c-0.74,2.06-2.114,3.544-4.125,4.449c-2.291,1.032-4.51,1.03-6.658-0.006c-1.671-0.812-3.03-2.373-4.072-4.685L81.849,119.229z"
				/>
			<path fill="#F7931E" d="M99.392,102.412c0.818-0.368,1.656-0.4,2.51-0.094c0.855,0.309,1.461,0.854,1.816,1.638
				c0.377,0.839,0.404,1.651,0.082,2.445c-0.323,0.793-0.924,1.387-1.806,1.784c-0.881,0.397-1.725,0.455-2.532,0.171
				c-0.807-0.283-1.398-0.845-1.777-1.681c-0.354-0.786-0.362-1.6-0.024-2.444C97.999,103.388,98.575,102.78,99.392,102.412z
				 M105.626,108.235l7.248,16.078l-6.028,2.717l-7.251-16.076L105.626,108.235z"/>
			<path fill="#F7931E" d="M122.591,100.587l-0.536,11.98l5.679-2.558l2.85,6.32l-15.498,6.986l0.488-11.998l-5.097,2.298
				l-2.835-6.29L122.591,100.587z"/>
			<path fill="#F7931E" d="M138.943,93.216l-0.536,11.979l5.677-2.561l2.85,6.322l-15.499,6.988l0.489-12l-5.095,2.298l-2.835-6.289
				L138.943,93.216z"/>
		</g>
	</g>
	<path fill="none" stroke="#0071BC" stroke-width="5" stroke-linecap="round" d="M79.642,60.153c0,3.539,6.498,6.402,14.526,6.402"
		/>
	<path fill="none" stroke="#0071BC" stroke-width="5" stroke-linecap="round" d="M108.45,60.192c0,3.54-6.499,6.402-14.528,6.402"/>
	<circle fill="none" stroke="#0A71B4" stroke-width="4" cx="80.66" cy="40.773" r="3.188"/>
	<circle fill="none" stroke="#0A71B4" stroke-width="4" cx="107.113" cy="40.773" r="3.188"/>
</g>
<path fill="none" stroke="#0071BC" stroke-width="4" d="M173.051,174.254c0-4.696-3.68-8.504-8.218-8.504H30.043
	c-4.539,0-8.217,3.808-8.217,8.504v15.242c0,4.696,3.679,8.504,8.217,8.504h134.79c4.538,0,8.218-3.808,8.218-8.504V174.254z"/>
<g>
	<path fill="#0071BC" d="M64.855,183.972c0,0.551-0.058,1.131-0.174,1.738c-0.116,0.607-0.332,1.173-0.646,1.696
		c-0.314,0.522-0.758,0.953-1.332,1.293c-0.574,0.339-1.311,0.509-2.212,0.509c-1.175,0-2.113-0.305-2.817-0.912
		c-0.703-0.607-1.185-1.406-1.444-2.396l2.376-0.699c0.123,0.495,0.349,0.887,0.676,1.177c0.328,0.289,0.717,0.435,1.167,0.435
		c0.369,0,0.672-0.071,0.912-0.212c0.239-0.142,0.423-0.343,0.553-0.604c0.129-0.262,0.222-0.572,0.276-0.933
		s0.082-0.753,0.082-1.177v-10.07h2.581V183.972z"/>
	<path fill="#0071BC" d="M77.187,183.865c0,0.113,0,0.227,0,0.34s-0.007,0.226-0.021,0.339h-7.477
		c0.027,0.367,0.12,0.703,0.277,1.007c0.157,0.304,0.365,0.565,0.625,0.784c0.259,0.22,0.553,0.393,0.881,0.52
		c0.328,0.127,0.669,0.19,1.024,0.19c0.615,0,1.133-0.116,1.557-0.35c0.423-0.232,0.771-0.555,1.045-0.964l1.639,1.356
		c-0.97,1.356-2.376,2.035-4.22,2.035c-0.765,0-1.468-0.124-2.11-0.371c-0.642-0.247-1.199-0.597-1.669-1.05
		c-0.471-0.452-0.84-1.007-1.106-1.664s-0.399-1.402-0.399-2.236c0-0.819,0.133-1.565,0.399-2.236s0.631-1.243,1.096-1.718
		c0.464-0.473,1.014-0.84,1.649-1.102c0.635-0.262,1.321-0.393,2.059-0.393c0.683,0,1.314,0.116,1.895,0.35
		c0.58,0.233,1.082,0.58,1.505,1.039s0.754,1.032,0.994,1.717C77.067,182.145,77.187,182.947,77.187,183.865z M74.729,182.721
		c0-0.325-0.044-0.636-0.133-0.933s-0.229-0.559-0.42-0.784c-0.191-0.227-0.434-0.406-0.727-0.541
		c-0.294-0.134-0.639-0.201-1.035-0.201c-0.737,0-1.362,0.229-1.875,0.688c-0.512,0.46-0.795,1.05-0.85,1.771H74.729z"/>
	<path fill="#0071BC" d="M83.209,178.65h2.684l2.581,7.42h0.041l2.602-7.42h2.602l-3.913,10.176h-2.622L83.209,178.65z"/>
	<path fill="#0071BC" d="M101.297,187.533h-0.062c-0.245,0.452-0.642,0.823-1.188,1.112c-0.546,0.29-1.168,0.436-1.864,0.436
		c-0.396,0-0.809-0.054-1.239-0.159c-0.43-0.106-0.827-0.283-1.188-0.53s-0.663-0.572-0.901-0.976
		c-0.239-0.402-0.358-0.9-0.358-1.494c0-0.764,0.208-1.371,0.625-1.823c0.417-0.452,0.953-0.798,1.608-1.039
		c0.656-0.24,1.383-0.398,2.182-0.477s1.581-0.117,2.345-0.117v-0.254c0-0.636-0.222-1.105-0.666-1.41
		c-0.443-0.304-0.972-0.455-1.587-0.455c-0.519,0-1.018,0.113-1.496,0.339c-0.478,0.227-0.874,0.502-1.188,0.827l-1.27-1.548
		c0.56-0.537,1.205-0.939,1.936-1.209c0.73-0.268,1.471-0.402,2.222-0.402c0.874,0,1.594,0.127,2.162,0.382
		c0.566,0.254,1.014,0.586,1.342,0.996c0.327,0.41,0.556,0.869,0.686,1.378s0.195,1.018,0.195,1.526v6.19h-2.295V187.533z
		 M101.256,184.184h-0.553c-0.396,0-0.812,0.018-1.25,0.053c-0.438,0.035-0.84,0.113-1.208,0.233s-0.676,0.29-0.922,0.509
		c-0.246,0.219-0.369,0.52-0.369,0.901c0,0.24,0.051,0.441,0.153,0.604c0.103,0.163,0.236,0.294,0.399,0.393
		c0.164,0.099,0.349,0.169,0.553,0.212c0.205,0.042,0.41,0.063,0.615,0.063c0.847,0,1.488-0.233,1.925-0.699
		c0.438-0.467,0.655-1.103,0.655-1.908V184.184z"/>
	<path fill="#0071BC" d="M106.5,172.799h2.458v16.027H106.5V172.799z"/>
	<path fill="#0071BC" d="M111.642,175.194c0-0.409,0.146-0.766,0.44-1.07c0.293-0.304,0.665-0.456,1.116-0.456
		c0.45,0,0.829,0.146,1.137,0.435c0.308,0.29,0.461,0.654,0.461,1.092c0,0.438-0.153,0.803-0.461,1.092
		c-0.308,0.29-0.687,0.435-1.137,0.435c-0.451,0-0.823-0.151-1.116-0.455C111.788,175.962,111.642,175.604,111.642,175.194z
		 M111.989,178.65h2.458v10.176h-2.458V178.65z"/>
	<path fill="#0071BC" d="M127.436,188.826h-2.335V187.3h-0.041c-0.342,0.594-0.816,1.046-1.424,1.356
		c-0.608,0.311-1.26,0.467-1.957,0.467c-0.751,0-1.423-0.146-2.018-0.435c-0.594-0.29-1.1-0.679-1.516-1.166
		c-0.417-0.487-0.737-1.06-0.963-1.717s-0.338-1.36-0.338-2.109s0.116-1.449,0.349-2.1c0.231-0.649,0.56-1.215,0.982-1.695
		c0.424-0.48,0.929-0.858,1.517-1.135c0.587-0.275,1.229-0.413,1.926-0.413c0.45,0,0.853,0.053,1.208,0.159
		c0.355,0.105,0.666,0.236,0.933,0.392c0.266,0.156,0.494,0.326,0.686,0.509c0.191,0.185,0.349,0.36,0.472,0.53h0.062v-7.145h2.458
		V188.826z M119.344,183.696c0,0.396,0.058,0.791,0.174,1.187c0.116,0.396,0.29,0.749,0.522,1.061
		c0.232,0.311,0.526,0.565,0.881,0.763c0.355,0.198,0.771,0.297,1.25,0.297c0.45,0,0.854-0.096,1.209-0.286
		c0.354-0.19,0.658-0.441,0.911-0.753c0.253-0.311,0.443-0.66,0.573-1.049s0.195-0.781,0.195-1.177s-0.065-0.791-0.195-1.188
		c-0.13-0.396-0.32-0.749-0.573-1.06s-0.557-0.565-0.911-0.764c-0.355-0.197-0.759-0.297-1.209-0.297
		c-0.479,0-0.895,0.096-1.25,0.287c-0.354,0.19-0.648,0.441-0.881,0.752c-0.232,0.312-0.406,0.661-0.522,1.05
		S119.344,183.301,119.344,183.696z"/>
	<path fill="#0071BC" d="M139.809,183.865c0,0.113,0,0.227,0,0.34s-0.008,0.226-0.021,0.339h-7.478
		c0.027,0.367,0.119,0.703,0.276,1.007s0.365,0.565,0.625,0.784c0.26,0.22,0.554,0.393,0.881,0.52
		c0.328,0.127,0.669,0.19,1.024,0.19c0.614,0,1.134-0.116,1.557-0.35c0.423-0.232,0.771-0.555,1.045-0.964l1.639,1.356
		c-0.97,1.356-2.376,2.035-4.22,2.035c-0.765,0-1.468-0.124-2.11-0.371c-0.642-0.247-1.198-0.597-1.669-1.05
		c-0.472-0.452-0.84-1.007-1.106-1.664s-0.399-1.402-0.399-2.236c0-0.819,0.133-1.565,0.399-2.236s0.632-1.243,1.096-1.718
		c0.465-0.473,1.015-0.84,1.649-1.102s1.321-0.393,2.059-0.393c0.683,0,1.314,0.116,1.895,0.35c0.581,0.233,1.083,0.58,1.506,1.039
		s0.755,1.032,0.994,1.717C139.688,182.145,139.809,182.947,139.809,183.865z M137.35,182.721c0-0.325-0.044-0.636-0.133-0.933
		s-0.229-0.559-0.42-0.784c-0.191-0.227-0.434-0.406-0.728-0.541c-0.293-0.134-0.638-0.201-1.034-0.201
		c-0.737,0-1.362,0.229-1.874,0.688c-0.513,0.46-0.796,1.05-0.851,1.771H137.35z"/>
</g>
</svg>
