<?xml version="1.0" encoding="utf-8"?>
<!-- Generator: Adobe Illustrator 13.0.0, SVG Export Plug-In . SVG Version: 6.00 Build 14948)  -->
<!DOCTYPE svg PUBLIC "-//W3C//DTD SVG 1.1//EN" "http://www.w3.org/Graphics/SVG/1.1/DTD/svg11.dtd">
<svg version="1.1" id="Calque_1" xmlns="http://www.w3.org/2000/svg" xmlns:xlink="http://www.w3.org/1999/xlink" x="0px" y="0px"
	 width="200px" height="200px" viewBox="0 0 200 200" enable-background="new 0 0 200 200" xml:space="preserve">
<circle fill="#F7931E" cx="100.25" cy="99.75" r="98.75"/>
<g>
	<g>
		<g>
			<path fill="#E6E6E6" stroke="#0071BC" stroke-width="2" d="M124.69,51.447c0,13.068-10.592,23.658-23.65,23.658
				c-13.069,0-23.66-10.59-23.66-23.658c0-13.057,10.591-23.65,23.66-23.65C114.099,27.798,124.69,38.39,124.69,51.447z"/>
			<path fill="#E6E6E6" stroke="#0071BC" stroke-width="2" d="M55.521,116.439V92.445c0-11.785,9.55-21.337,21.336-21.337
				l17.505,12.874l28.376-12.874c11.783,0,21.336,9.552,21.336,21.337v23.994H55.521z"/>
			<line fill="none" stroke="#0071BC" stroke-width="2" x1="75.48" y1="115.995" x2="75.48" y2="95.302"/>
			<line fill="none" stroke="#0071BC" stroke-width="2" x1="123.141" y1="115.995" x2="123.141" y2="95.302"/>
		</g>
	</g>
	<path fill="none" stroke="#0071BC" stroke-width="2" stroke-linecap="round" d="M89.083,57.258c0,2.099,3.856,3.799,8.621,3.799"/>
	<path fill="none" stroke="#0071BC" stroke-width="2" stroke-linecap="round" d="M106.179,57.282c0,2.1-3.856,3.799-8.621,3.799"/>
	<circle fill="none" stroke="#0A71B4" stroke-width="2" cx="89.688" cy="45.756" r="1.892"/>
	<circle fill="none" stroke="#0A71B4" stroke-width="2" cx="105.385" cy="45.756" r="1.892"/>
</g>
<g>
	<g>
		<g>
			<path fill="#E6E6E6" stroke="#0071BC" stroke-width="2" d="M89.939,82.661c0,13.067-10.591,23.657-23.651,23.657
				c-13.067,0-23.658-10.59-23.658-23.657c0-13.058,10.591-23.649,23.658-23.649C79.348,59.011,89.939,69.603,89.939,82.661z"/>
			<path fill="#E6E6E6" stroke="#0071BC" stroke-width="2" d="M22.533,147.806v-23.994c0-11.784,9.549-21.337,21.338-21.337
				l17.503,12.874l28.375-12.874c11.785,0,21.336,9.553,21.336,21.337v23.994H22.533z"/>
			<line fill="none" stroke="#0071BC" stroke-width="2" x1="42.492" y1="147.362" x2="42.492" y2="126.669"/>
			<line fill="none" stroke="#0071BC" stroke-width="2" x1="90.153" y1="147.362" x2="90.153" y2="126.669"/>
		</g>
	</g>
	<path fill="none" stroke="#0071BC" stroke-width="2" stroke-linecap="round" d="M61.99,88.471c0,2.1,3.856,3.798,8.622,3.798"/>
	<path fill="none" stroke="#0071BC" stroke-width="2" stroke-linecap="round" d="M79.086,88.495c0,2.1-3.856,3.797-8.62,3.797"/>
	<circle fill="none" stroke="#0A71B4" stroke-width="2" cx="62.595" cy="76.969" r="1.892"/>
	<circle fill="none" stroke="#0A71B4" stroke-width="2" cx="78.295" cy="76.969" r="1.892"/>
</g>
<g>
	<g>
		<g>
			<path fill="#E6E6E6" stroke="#0071BC" stroke-width="2" d="M156.474,82.627c0,13.067-10.592,23.657-23.651,23.657
				c-13.069,0-23.66-10.59-23.66-23.657c0-13.057,10.591-23.651,23.66-23.651C145.882,58.979,156.474,69.57,156.474,82.627z"/>
			<path fill="#E6E6E6" stroke="#0071BC" stroke-width="2" d="M89.856,147.94v-23.995c0-11.786,9.549-21.339,21.337-21.339
				l17.504,12.874l28.376-12.874c11.783,0,21.336,9.553,21.336,21.339v23.995H89.856z"/>
			<line fill="none" stroke="#0071BC" stroke-width="2" x1="109.815" y1="147.494" x2="109.815" y2="126.802"/>
			<line fill="none" stroke="#0071BC" stroke-width="2" x1="157.477" y1="147.494" x2="157.477" y2="126.802"/>
		</g>
	</g>
	<path fill="none" stroke="#0071BC" stroke-width="2" stroke-linecap="round" d="M123.418,88.756c0,2.1,3.856,3.799,8.621,3.799"/>
	<path fill="none" stroke="#0071BC" stroke-width="2" stroke-linecap="round" d="M140.514,88.78c0,2.1-3.856,3.798-8.621,3.798"/>
	<circle fill="none" stroke="#0A71B4" stroke-width="2" cx="124.022" cy="77.255" r="1.891"/>
	<circle fill="none" stroke="#0A71B4" stroke-width="2" cx="139.722" cy="77.255" r="1.891"/>
</g>
</svg>
