<?xml version="1.0" encoding="utf-8"?>
<!-- Generator: Adobe Illustrator 13.0.0, SVG Export Plug-In . SVG Version: 6.00 Build 14948)  -->
<!DOCTYPE svg PUBLIC "-//W3C//DTD SVG 1.1//EN" "http://www.w3.org/Graphics/SVG/1.1/DTD/svg11.dtd">
<svg version="1.1" id="Calque_1" xmlns="http://www.w3.org/2000/svg" xmlns:xlink="http://www.w3.org/1999/xlink" x="0px" y="0px"
	 width="70px" height="50px" viewBox="0 0 70 50" enable-background="new 0 0 70 50" xml:space="preserve">
<g>
	<path fill="#FBB03B" stroke="#FFFFFF" d="M22.541,1.972c-4.509,0-8.168,3.663-8.168,8.18c0,4.521,3.655,8.185,8.168,8.185
		c4.51,0,8.165-3.663,8.165-8.185C30.706,5.635,27.051,1.972,22.541,1.972"/>
	<path fill="#29ABE2" stroke="#FFFFFF" d="M33.738,32.027v10.828c0,1.922,2.676,6.563,10.776,6.563s8.735-8.846,8.735-10.494V27.232
		c5.766-3.023,13.153-5.417,15.974-10.833c2.661-5.091,0.138-5.913-2.33-3.165c-2.476,2.757-13.119,6.243-14.491,6.243l-3.271,0.001
		c0,0-1.822,2.999-5.142,3.106c-3.32,0.107-4.498-2.892-4.498-2.892c-2.607,0-5.753,0.474-5.753,2.122v1.349V32.027z"/>
	<path fill="#ED1C24" stroke="#FFFFFF" d="M33.63,21.937c-0.125-0.101-0.245-0.2-0.345-0.297c-1.921-1.785-3.426-3.312-6.86-3.174
		c-0.767,0.029-2.608,5.498-3.749,5.462c-1.169-0.038-3.771-5.68-5.141-5.784c-3.288-0.249-5.8-0.506-7.66-2.366
		c-4.01-4.01-4.5-10.311-5.81-10.146c-1.895,0.236-1.882,6.792,0.164,10.72c1.848,3.547,8.347,9.001,8.347,9.001L12.66,37.87
		c0,3.715,7.658,11.781,11.638,11.781c3.98,0,7.001-2.749,7.001-4.678V29.94c0.754,0.394,1.537,0.666,2.331,0.859V21.937z"/>
	<path fill="#F7931E" stroke="#FFFFFF" d="M44.15,3.042c-4.505,0-8.164,3.663-8.164,8.18c0,4.521,3.659,8.185,8.164,8.185
		c4.514,0,8.169-3.663,8.169-8.185C52.319,6.704,48.664,3.042,44.15,3.042"/>
	<circle fill="#FFFFFF" cx="20.25" cy="10.921" r="0.742"/>
	<circle fill="#FFFFFF" cx="46.112" cy="11.488" r="0.742"/>
	<circle fill="#FFFFFF" cx="40.535" cy="11.488" r="0.742"/>
	<circle fill="#FFFFFF" cx="25.357" cy="10.853" r="0.742"/>
</g>
<path fill="none" stroke="#FFFFFF" stroke-linecap="round" d="M24.679,14.762c0,0.616-0.943,1.115-2.106,1.115
	c-1.164,0-2.106-0.499-2.106-1.115c0-0.615,0.943,0,2.106,0C23.736,14.762,24.679,14.146,24.679,14.762z"/>
<path fill="none" stroke="#FFFFFF" stroke-linecap="round" d="M45.434,15.149c0,0.615-0.943,1.115-2.106,1.115
	s-2.106-0.5-2.106-1.115c0-0.616,0.943,0,2.106,0S45.434,14.533,45.434,15.149z"/>
</svg>
